<svg width="189" height="138" viewBox="0 0 189 138" fill="none" xmlns="http://www.w3.org/2000/svg">
<g opacity="0.2">
<path d="M17.6701 60.7595C17.6849 60.7218 17.7075 60.6875 17.7363 60.659C17.7651 60.6305 17.7995 60.6085 17.8371 60.5944C18.5777 60.113 20.1199 59.6403 20.6374 61.8435C20.6552 61.9407 20.6572 62.0409 20.6433 62.1399L18.2294 67.2221L12.5488 79.18L11.2039 82.0133C11.2039 82.0133 8.68765 86.5364 6.68435 89.5959C3.42054 94.8516 3.81514 92.3288 5.09292 88.7249C4.85738 89.0538 8.43293 80.2376 8.43293 80.2376L9.58709 77.8087L15.2602 65.8449L17.6701 60.7595Z" fill="#7E76F9"/>
<path d="M20.3884 62.7252C20.3505 62.7109 20.3164 62.6883 20.2884 62.6591C20.2604 62.6298 20.2392 62.5946 20.2262 62.5558C19.7627 61.7985 19.3376 60.1968 21.5986 59.5837C21.6981 59.5619 21.7999 59.5564 21.9 59.5675L26.9843 61.9274L61.6578 78.0146C61.6578 78.0146 66.1683 80.5006 69.2093 82.4985C74.4371 85.7432 71.8856 85.4131 68.2656 84.1933C68.5916 84.4285 59.7509 80.9729 59.7509 80.9729L25.4743 65.0833L20.3884 62.7252Z" fill="#7E76F9"/>
<path d="M69.7744 84.9251C69.7893 84.8873 69.812 84.8529 69.841 84.8243C69.8699 84.7957 69.9044 84.7736 69.9421 84.7594C70.6827 84.2786 72.2246 83.8051 72.7419 86.0089C72.7597 86.1061 72.7619 86.2059 72.7486 86.3048L70.3343 91.3886L65.2758 102.039L63.9308 104.873C63.9308 104.873 61.4156 109.396 59.412 112.457C56.1492 117.713 56.5432 115.19 57.8204 111.586C57.5855 111.915 61.1595 103.097 61.1595 103.097L62.3144 100.665L67.3607 90.0123L69.7744 84.9251Z" fill="#7E76F9"/>
<path d="M4.46873 94.4308C4.43077 94.4165 4.39658 94.3939 4.36849 94.3646C4.34039 94.3354 4.31905 94.3002 4.30589 94.2613C3.84363 93.5008 3.41792 91.9024 5.6783 91.2892C5.77778 91.267 5.87965 91.2616 5.97974 91.273L11.0641 93.6323L46.0602 109.869C46.0602 109.869 50.5706 112.356 53.6117 114.354C58.8395 117.598 56.2887 117.268 52.6681 116.048C52.9946 116.284 44.1532 112.828 44.1532 112.828L9.55352 96.7915L4.46873 94.4308Z" fill="#7E76F9"/>
<path d="M18.6548 62.7546C18.6319 62.7225 18.6164 62.6856 18.6092 62.6464C18.602 62.6071 18.6034 62.5664 18.6133 62.5271C18.6407 61.6493 19.1153 60.0429 21.2711 60.7202C21.3637 60.7546 21.4494 60.8042 21.5249 60.8671L22.9863 63.2411C23.4697 64.0342 23.9184 64.843 24.3858 65.6438C26.5361 69.3566 28.5367 73.1315 30.5573 76.8663C31.0463 77.7638 31.5261 78.6714 32.0221 79.5599C32.0221 79.5599 32.5551 80.7041 33.2464 82.27C33.5943 83.0479 33.989 83.9269 34.3879 84.8186L35.5145 87.4411C38.0365 92.926 36.1692 91.3432 33.8499 88.3549C33.9039 88.5506 32.6381 86.7006 31.3634 84.7894C30.7224 83.836 30.1141 82.8563 29.6404 82.1226L28.8575 80.894L27.5958 78.5701C25.563 74.822 23.5734 71.0743 21.458 67.4286C20.9985 66.6431 20.5552 65.8445 20.0824 65.0732L18.6548 62.7546Z" fill="#7E76F9"/>
<path d="M38.1897 92.8774C38.1534 92.8875 38.1155 92.889 38.0791 92.8818C38.0427 92.8746 38.0088 92.8589 37.9799 92.8359C37.5147 92.6386 37.1165 92.3142 36.8283 91.898C36.5357 91.4166 36.411 90.7297 37.2809 89.7091C37.3591 89.6293 37.4488 89.562 37.5468 89.5098C39.6225 89.0585 41.5355 88.9563 43.3487 88.7226C43.8994 88.6618 44.3885 88.5686 44.9397 88.479L46.6237 88.198L49.9917 87.6371L56.6964 86.508C57.74 86.3332 58.7797 86.1573 59.8138 85.9599C59.8138 85.9599 61.1047 85.8089 62.8552 85.6427L65.7222 85.3833C66.7182 85.2811 67.7259 85.1896 68.6418 85.1317C74.8401 84.5634 72.5775 85.8172 68.8456 87.0252C68.4472 87.1932 68.0362 87.3256 67.6172 87.4208C66.7953 87.6614 65.66 87.9899 64.5075 88.2678L59.8452 89.4299C58.9465 89.6022 58.0503 89.746 57.1526 89.9013L50.4389 91.0387L47.0994 91.599L45.4296 91.8794C44.8583 91.9721 44.2324 92.0869 43.6585 92.149C41.7077 92.3904 39.834 92.5136 38.1897 92.8774Z" fill="#7E76F9"/>
<path d="M5.24605 93.9128C5.20212 93.9261 5.15617 93.9297 5.11149 93.9231C5.06681 93.9165 5.02454 93.9 4.98765 93.8748C4.72702 93.7892 4.48908 93.649 4.28901 93.4634C4.08894 93.2777 3.93112 93.0506 3.82565 92.7965C3.64796 92.2598 3.85022 91.5551 4.53394 90.7224C4.59658 90.6555 4.66777 90.5973 4.74551 90.5493C6.49419 90.1437 8.21208 89.5942 9.8816 88.9067C12.1818 88.0803 14.3582 87.2664 16.5756 86.4374L19.5428 85.328L22.492 84.4684C24.1942 83.9748 26.3466 83.3772 28.1464 82.9605C34.2031 81.4008 32.1156 83.0032 28.6402 84.771C28.8401 84.7323 26.7349 85.716 24.5804 86.7047C23.5045 87.2006 22.4138 87.697 21.579 88.0609L20.191 88.6736L17.6172 89.6374C15.3912 90.4733 13.1243 91.3229 10.9613 92.1041C9.10411 92.8664 7.19221 93.4714 5.24605 93.9128Z" fill="#7E76F9"/>
<path d="M45.6462 91.1882C45.6284 91.1532 45.6186 91.1145 45.6174 91.0747C45.6162 91.0349 45.6236 90.995 45.6392 90.9577C45.7952 90.1007 46.4877 88.5714 48.5058 89.5686C48.5929 89.6168 48.6709 89.6795 48.7367 89.7542L49.8334 92.3342C50.1781 93.1999 50.4784 94.0771 50.8023 94.9478L53.2097 101.489L54.2766 104.374C54.2766 104.374 55.7121 109.253 56.4647 112.775C57.8861 118.694 56.3537 116.716 54.6828 113.367C54.7495 113.76 50.9874 105.232 50.9874 105.232L50.0703 102.755L47.6603 96.236C47.3422 95.3843 47.0467 94.5172 46.7102 93.6755L45.6462 91.1882Z" fill="#7E76F9"/>
<path d="M63.8577 67.734C63.8483 67.7453 63.8456 67.749 63.766 67.7204C63.3707 67.5943 62.9886 67.4328 62.6243 67.2378C62.0406 66.9385 61.5141 66.5422 61.0663 66.0651C61.0328 66.0287 61.0052 65.9872 60.9844 65.942C61.0033 65.9259 61.2586 65.5116 61.6822 64.9533C61.9035 64.6866 62.1556 64.3673 62.4373 64.047C62.7298 63.7445 63.0356 63.4096 63.3537 63.1021C63.6744 62.8064 63.9972 62.4989 64.3018 62.2366L65.1441 61.5316L65.9717 60.8851C66.1841 60.8109 66.3999 60.7474 66.618 60.6948C67.0493 60.5798 67.4906 60.5137 67.9334 60.498C69.363 60.349 69.3859 61.2567 69.0005 62.0353C68.8694 62.3248 68.699 62.5959 68.4942 62.8404L67.9289 63.6315L67.1852 64.2164L66.4563 64.8305C66.1968 65.0612 65.9374 65.3101 65.667 65.5567C65.4126 65.811 65.1729 66.0723 64.939 66.3129C64.7304 66.5652 64.5354 66.8015 64.3676 67.0054C64.0559 67.4249 63.8741 67.7209 63.8577 67.734Z" fill="#7E76F9"/>
<path d="M81.1969 59.4992C81.1845 59.4974 81.1793 59.5 81.1578 59.4174C80.8752 58.3714 80.804 57.2726 80.9484 56.1845C80.9546 56.1357 80.9664 56.0876 80.9837 56.0411L81.8437 55.9721L82.6959 55.9059L83.6758 55.8663L84.6527 55.8288L85.5164 55.8404L86.3578 55.8527C86.5326 55.9272 86.6995 56.0181 86.8564 56.1243C87.1863 56.3272 87.4878 56.5719 87.7538 56.8528C88.656 57.6817 88.0709 58.3976 87.457 58.7584C87.4807 58.7985 87.1172 58.9305 86.7623 59.0522C86.5827 59.1158 86.4102 59.1655 86.2726 59.2197L86.0433 59.3091L85.3048 59.3005L84.5495 59.2921L83.6639 59.3309L82.7758 59.3687L81.9892 59.433L81.1969 59.4992Z" fill="#7E76F9"/>
<path d="M104.287 61.6295C104.273 61.6275 104.268 61.6267 104.265 61.5378C104.221 60.4406 104.423 59.3392 104.856 58.315C104.875 58.2683 104.901 58.2245 104.932 58.1848L105.919 58.3762L106.896 58.5688L107.952 58.8313L110.738 59.524L110.871 59.6235C110.953 59.6848 111.065 59.7668 111.194 59.8719C111.502 60.1163 111.785 60.3913 112.037 60.693C112.963 61.6319 112.429 62.3176 111.63 62.5873C111.341 62.7003 111.037 62.7654 110.731 62.78L110.073 62.8658L109.783 62.8907L107.001 62.2067L106.001 61.9609L105.149 61.797L104.287 61.6295Z" fill="#7E76F9"/>
<path d="M129.078 66.1502C129.063 66.148 129.058 66.1472 129.053 66.0599C128.999 64.9609 129.194 63.8558 129.623 62.8279C129.642 62.7808 129.667 62.7361 129.696 62.6948L135.476 63.5742C135.998 63.8797 136.475 64.2551 136.895 64.6905C137.869 65.5907 137.291 66.2882 136.532 66.5964C135.957 66.779 135.37 66.9148 134.777 67.0025L129.078 66.1502Z" fill="#7E76F9"/>
<path d="M150.104 68.2809C150.091 68.2789 150.086 68.2822 150.062 68.2016C149.781 67.162 149.698 66.0722 149.818 64.9884C149.823 64.9399 149.832 64.8916 149.844 64.8442L150.525 64.7422L151.2 64.6394L151.972 64.4489L152.744 64.2597C152.988 64.1849 153.213 64.1033 153.407 64.0407L154.049 63.825L154.52 63.9055C154.853 63.9628 155.179 64.0547 155.491 64.1798C156.585 64.5073 156.593 65.3224 156.186 65.9354C155.861 66.3602 155.486 66.7442 155.069 67.078L154.327 67.3298C154.103 67.4021 153.846 67.4999 153.562 67.5796L152.662 67.8079C152.354 67.8826 152.049 67.9666 151.756 68.0286L150.936 68.1573L150.104 68.2809Z" fill="#7E76F9"/>
<path d="M167.299 63.5077C167.286 63.5125 167.281 63.5144 167.231 63.4478C166.613 62.5812 166.168 61.6001 165.918 60.5557C165.906 60.5105 165.897 60.4642 165.893 60.4173C165.903 60.4067 166.148 60.3003 166.491 60.1083C166.909 59.8783 167.314 59.6236 167.703 59.3456C168.087 59.0688 168.456 58.7707 168.808 58.453L169.273 58.0084C169.273 58.0084 169.446 57.9465 169.713 57.8777C170.038 57.7956 170.365 57.7318 170.696 57.6867C170.897 57.622 171.109 57.6074 171.314 57.6443C171.519 57.6812 171.71 57.7683 171.87 57.8981C171.984 58.0255 172.069 58.1775 172.118 58.3433C172.167 58.5091 172.178 58.6849 172.152 58.8583C172.143 59.1272 172.075 59.3928 171.952 59.6361L171.738 60.1728C171.705 60.2554 171.668 60.3364 171.627 60.4155L171.03 60.9905C170.577 61.3972 170.104 61.7795 169.611 62.1356C169.114 62.4911 168.598 62.8179 168.065 63.1144C167.627 63.3544 167.313 63.495 167.299 63.5077Z" fill="#7E76F9"/>
<path d="M179.602 47.5838C179.596 47.5989 179.594 47.604 179.51 47.5968C178.446 47.4838 177.431 47.1244 176.542 46.5465C176.5 46.5215 176.461 46.4917 176.426 46.4577C176.433 46.4399 176.545 46.1086 176.711 45.6215C176.794 45.378 176.892 45.0959 176.995 44.7953C177.077 44.4814 177.165 44.147 177.252 43.8139C177.34 43.4808 177.427 43.147 177.508 42.8351C177.576 42.5111 177.639 42.2132 177.693 41.9566C177.802 41.4429 177.874 41.1016 177.874 41.1016C177.874 41.1016 178.008 40.8943 178.211 40.6067C178.447 40.2721 178.716 39.9623 179.015 39.6823C179.927 38.6974 180.587 39.2398 180.859 39.988C180.97 40.2566 181.036 40.5427 181.056 40.8353C181.089 41.0575 181.123 41.2811 181.148 41.4505L181.18 41.7366L180.992 42.6341C180.936 42.9037 180.87 43.2173 180.799 43.5555C180.711 43.8965 180.616 44.2632 180.522 44.6247C180.428 44.9862 180.33 45.3538 180.24 45.6965C180.124 46.0394 180.016 46.3599 179.922 46.6367L179.602 47.5838Z" fill="#7E76F9"/>
<path d="M167.725 46.3127C167.628 46.3598 167.518 46.3695 167.417 46.3397C167.092 46.3093 166.778 46.2187 166.49 46.0726C166.341 46.007 166.21 45.9092 166.105 45.7859C166.001 45.6626 165.925 45.5169 165.884 45.359C165.873 45.2111 165.886 45.0617 165.923 44.9165C165.96 44.7658 166.038 44.6132 166.091 44.4439C166.119 44.3621 166.142 44.2787 166.159 44.1942C166.179 44.1077 166.212 44.0109 166.231 43.9208C166.251 43.823 166.277 43.7264 166.309 43.6316L166.352 43.4825L166.415 43.3148C166.444 43.2429 166.487 43.177 166.541 43.1208C166.908 42.9675 167.264 42.788 167.606 42.5838C167.979 42.3697 168.356 42.1301 168.736 41.8794C169.492 41.3754 170.244 40.8272 170.985 40.2605C172.616 39.0003 174.212 37.642 175.738 36.2378L176.144 35.8598L176.722 35.3039L177.298 34.7438L177.872 34.1557C178.637 33.3757 179.433 32.4604 180.241 31.5717L182.593 28.9584C182.632 28.9108 182.675 28.8656 182.721 28.8232L182.687 29.0477L182.618 29.496L182.482 30.3932L182.192 32.302L182.04 33.2979L181.966 33.7931L181.906 34.2553L181.661 36.1172C181.64 36.2548 181.631 36.3937 181.635 36.532L181.633 36.9133L181.629 37.6759L181.627 38.0572L181.625 38.2481L181.625 38.3429C181.625 38.3607 181.626 38.3784 181.628 38.3959L181.66 38.752C181.66 38.752 181.662 38.8256 181.663 38.9611C181.665 39.0966 181.658 39.297 181.682 39.5428C181.717 40.2098 181.792 40.8726 181.906 41.5278C182.059 42.4056 182.273 43.2695 182.548 44.1131C182.845 44.9921 183.189 45.8531 183.578 46.6927C183.911 47.3571 184.198 47.9104 184.442 48.3552C184.676 48.8098 184.862 49.1577 184.983 49.432C185.217 49.981 185.192 50.2155 184.959 50.2113C184.51 50.1946 183.17 49.2431 181.914 47.6741C180.914 46.4663 180.106 45.1088 179.517 43.647C179.055 42.5672 178.704 41.4397 178.471 40.2816C178.357 39.8044 178.315 39.397 178.27 39.1124L178.206 38.6749L178.203 38.5499L178.025 38.716C176.42 40.1995 174.762 41.6104 173.024 42.9564C172.233 43.5642 171.423 44.1564 170.572 44.7244C170.146 45.0079 169.71 45.2852 169.246 45.5511C168.757 45.8414 168.249 46.096 167.725 46.3127Z" fill="#7E76F9"/>
</g>
</svg>
