<svg width="15" height="15" viewBox="0 0 15 15" fill="none" xmlns="http://www.w3.org/2000/svg">
<path opacity="0.2" d="M12.8318 7.3445C12.8316 8.40748 12.5021 9.44656 11.8851 10.3303C11.268 11.2141 10.391 11.9029 9.36498 12.3096C8.33897 12.7163 7.21001 12.8226 6.12085 12.6152C5.03169 12.4078 4.03123 11.8959 3.24598 11.1443C2.46073 10.3926 1.92595 9.43498 1.70926 8.39243C1.49256 7.34989 1.6037 6.26925 2.02859 5.28715C2.45348 4.30506 3.17304 3.46564 4.09633 2.87497C5.01961 2.28431 6.10513 1.96892 7.21564 1.96875C7.95323 1.96852 8.68363 2.10739 9.36512 2.37747C10.0466 2.64754 10.6658 3.04355 11.1874 3.54278C11.7089 4.04201 12.1226 4.63473 12.4048 5.28705C12.6869 5.93937 12.832 6.63848 12.8318 7.3445V7.3445Z" stroke="#0D00D8" stroke-width="3" stroke-linecap="round" stroke-linejoin="round"/>
</svg>
