<svg width="155" height="97" viewBox="0 0 155 97" fill="none" xmlns="http://www.w3.org/2000/svg">
<g opacity="0.2">
<path d="M5.79662 59.9196C5.78828 59.9026 5.7851 59.8963 5.82583 59.8517C6.334 59.2855 7.05634 58.945 7.83697 58.904C7.87463 58.9007 7.9128 58.9034 7.94998 58.912L8.46294 59.8679L9.01211 60.7901L9.68672 61.8088L10.4118 62.7905L11.0843 63.616L11.7762 64.3943L12.0946 64.9687C12.2766 65.3043 12.4919 65.7468 12.6565 66.1375C13.2753 67.4111 12.5473 67.4362 11.7204 67.0397C11.4039 66.9007 11.1066 66.7212 10.8366 66.5061L10.2155 66.0729L9.94183 65.8614L9.7359 65.6318C9.60785 65.4862 9.41152 65.2815 9.19742 65.0198L8.46767 64.1239L7.6804 63.0557C7.43163 62.6792 7.17538 62.3059 6.94679 61.9473L6.35002 60.9486L5.79662 59.9196Z" fill="#0D00D8"/>
<path d="M17.8656 74.1885C17.8537 74.1779 17.8496 74.1747 17.8681 74.1169C18.0913 73.3958 18.5631 72.7795 19.2053 72.3705C19.236 72.351 19.2702 72.337 19.3063 72.329L20.1376 72.9934C20.3776 73.189 20.6654 73.4091 20.9549 73.6557L21.8355 74.4423C22.4434 74.9754 23.0078 75.5117 23.4374 75.9175L24.1505 76.5878C24.4823 77.0937 24.7631 77.6288 24.9888 78.1851C25.5239 79.365 24.8175 79.4201 24.0708 79.1095C23.5112 78.8371 22.9669 78.534 22.4407 78.2018L21.7428 77.5467C21.3247 77.1523 20.7659 76.6259 20.2022 76.1327L19.3727 75.3926C19.1018 75.1644 18.8432 74.9678 18.6234 74.7897L17.8656 74.1885Z" fill="#0D00D8"/>
<path d="M32.035 85.3737C32.035 85.3737 32.035 85.3738 32.0312 85.3183C31.9802 85.0308 31.8934 84.7493 31.7727 84.4802C31.6616 84.2622 31.6012 84.0244 31.5959 83.7843C31.5905 83.5441 31.6404 83.3077 31.7418 83.0924C31.7681 83.0494 31.8035 83.0127 31.8458 82.9844C31.8653 82.984 32.0302 82.9841 32.3098 82.9948C32.5518 83.0167 32.8823 83.0544 33.2247 83.1181C33.9249 83.2418 34.7762 83.441 35.6138 83.636C36.4514 83.8309 37.2712 84.0161 37.8846 84.1437C38.1904 84.2044 38.4444 84.2553 38.6221 84.2902L38.9005 84.34C39.4938 84.5956 40.0725 84.8844 40.6335 85.2049C41.2493 85.5128 41.4496 85.7845 41.3737 86.0112C41.2785 86.153 41.152 86.2717 41.0031 86.3591C40.8542 86.4465 40.6865 86.5005 40.5115 86.5172C40.1857 86.5973 39.8493 86.6368 39.5105 86.6349C38.9807 86.6682 38.4457 86.6671 38.4457 86.6671C38.4457 86.6671 38.0165 86.5897 37.3815 86.46C36.7465 86.3303 35.9097 86.14 35.0837 85.9486C34.2576 85.7572 33.4417 85.5704 32.8641 85.4708C32.5719 85.418 32.3585 85.3969 32.2148 85.382C32.1059 85.3802 32.0391 85.3732 32.035 85.3737Z" fill="#0D00D8"/>
<path d="M50.1151 86.9297C50.0969 86.9347 50.09 86.9365 50.0479 86.8865C49.7903 86.5827 49.5964 86.2326 49.4779 85.8575C49.3593 85.4823 49.3186 85.09 49.3581 84.7039C49.3607 84.6657 49.3701 84.6285 49.3859 84.5938C49.4099 84.5873 49.8698 84.4628 50.5447 84.277C50.8828 84.1855 51.2747 84.0794 51.6925 83.9632C52.1104 83.8469 52.5434 83.7119 52.979 83.5829C53.4145 83.4539 53.8543 83.3286 54.2585 83.2002C54.6571 83.064 55.0288 82.9369 55.3474 82.828C55.9841 82.6107 56.4079 82.4659 56.4079 82.4659C56.4079 82.4659 56.483 82.4584 56.6101 82.4449C56.7371 82.4314 56.9069 82.4039 57.1096 82.3766C57.5681 82.3165 58.0313 82.2884 58.4959 82.2925C60.016 82.2286 59.762 82.9209 59.0511 83.5318C58.7889 83.7705 58.5014 83.981 58.1933 84.1602L57.5425 84.5877L57.2364 84.7627C57.2364 84.7627 56.7989 84.9131 56.1408 85.1392C55.8118 85.2523 55.4272 85.384 55.0152 85.525C54.6008 85.6483 54.1582 85.7804 53.715 85.9127C53.2718 86.045 52.8277 86.1763 52.411 86.3002C51.994 86.4131 51.6047 86.5215 51.2697 86.6134C50.5979 86.7972 50.1409 86.9228 50.1151 86.9297Z" fill="#0D00D8"/>
<path d="M70.0506 79.4037C70.0368 79.4147 70.0314 79.4192 69.9736 79.3916C69.2469 79.0556 68.6762 78.4566 68.3863 77.7259C68.3716 77.69 68.3637 77.6521 68.3628 77.6139C68.3811 77.5975 68.7253 77.2948 69.2303 76.8502C69.7354 76.4056 70.3886 75.837 71.0182 75.2541C71.6478 74.6712 72.2431 74.0769 72.6804 73.6238C73.0949 73.161 73.3711 72.8534 73.3711 72.8534L73.5226 72.748C73.6128 72.679 73.7421 72.5831 73.8956 72.4746C74.2016 72.2562 74.6235 71.9952 74.9659 71.7694C75.5304 71.369 75.8799 71.3167 76.0479 71.4937C76.2159 71.6707 76.2143 72.0733 76.0995 72.5292C76.0267 72.8754 75.8968 73.206 75.7146 73.5081L75.3696 74.1926C75.2688 74.3754 75.1952 74.4916 75.1952 74.4916L74.443 75.3329C73.9731 75.8112 73.3464 76.4503 72.6927 77.0469C72.0391 77.6435 71.3805 78.2299 70.8845 78.6642L70.0506 79.4037Z" fill="#0D00D8"/>
<path d="M81.7007 64.93C81.6882 64.9406 81.684 64.9447 81.6276 64.917C81.3543 64.791 81.1044 64.6193 80.8895 64.4099C80.5482 64.0788 80.2523 63.706 80.0098 63.3015C79.9907 63.2719 79.9756 63.2401 79.9649 63.2069C80.1328 63.0497 80.2883 62.8802 80.4301 62.6999C80.7413 62.3067 80.9996 61.8754 81.199 61.416C81.4103 60.9305 81.5838 60.429 81.718 59.9158C81.8305 59.4821 81.8934 59.1822 81.8934 59.1822C81.8934 59.1822 81.9967 59.0033 82.1564 58.7588C82.3364 58.4731 82.5397 58.2026 82.7645 57.9497C83.4432 57.0717 83.9075 57.5625 84.0867 58.2331C84.1622 58.4833 84.201 58.7414 84.2019 58.9997C84.236 59.4026 84.2483 59.8233 84.2483 59.8233C84.2483 59.8233 84.1805 60.1487 84.0504 60.6431C83.887 61.2658 83.6748 61.8737 83.4156 62.4616C83.141 63.0842 82.7882 63.669 82.3651 64.2029C82.1616 64.4605 81.9396 64.7035 81.7007 64.93Z" fill="#0D00D8"/>
<path d="M85.0631 50.0818C85.064 50.0965 85.0645 50.1018 85.0083 50.1217C84.2906 50.3677 83.5063 50.3925 82.7586 50.1927C82.7231 50.1848 82.6888 50.1721 82.6566 50.1549L82.5718 49.3583C82.5437 49.1263 82.53 48.861 82.4804 48.564L82.3208 47.6342L81.8644 45.0489C81.939 44.5227 82.0752 44.0085 82.2702 43.5165C82.6399 42.4587 83.2283 42.8467 83.5957 43.4235C83.7392 43.634 83.8541 43.8613 83.9372 44.0995L84.2459 44.8179L84.6996 47.3535L84.8659 48.3146C84.9155 48.6253 84.9378 48.9338 84.9688 49.1908L85.0631 50.0818Z" fill="#0D00D8"/>
<path d="M78.3458 32.1277C78.3501 32.1416 78.3517 32.1465 78.3015 32.1804C78.0678 32.3474 77.8069 32.4757 77.5288 32.5606C77.085 32.7 76.623 32.7834 76.1537 32.8091C76.1188 32.8121 76.0834 32.8107 76.0485 32.8049C76.0393 32.793 75.9593 32.549 75.8094 32.1942L75.5079 31.5977L75.0922 30.9358L74.6164 30.2972L74.1576 29.7597C74.0238 29.6023 73.8947 29.4814 73.8128 29.3923L73.6802 29.2543L73.4923 28.8363C73.3669 28.5498 73.261 28.256 73.1753 27.957C72.8174 26.9878 73.4115 26.8129 74.0636 27.0079C74.0582 26.9673 74.4031 27.1211 74.7482 27.3047C75.0976 27.4807 75.4376 27.6969 75.4376 27.6969L75.5906 27.8552C75.6839 27.9593 75.8318 28.0938 75.9866 28.2816C76.1415 28.4695 76.3319 28.6778 76.5249 28.9136C76.7085 29.1604 76.9082 29.4197 77.0997 29.6878C77.2777 29.9691 77.4576 30.2487 77.6208 30.5178L78.0171 31.2948C78.223 31.7722 78.3353 32.1119 78.3458 32.1277Z" fill="#0D00D8"/>
<path d="M62.1135 24.386C62.126 24.3887 62.1305 24.3893 62.1387 24.449C62.1847 24.7387 62.1888 25.0318 62.1508 25.3198C62.0914 25.7764 61.9784 26.223 61.8141 26.651C61.8021 26.6827 61.7864 26.7128 61.7671 26.7406L61.0873 26.6338C60.6744 26.5781 60.13 26.5049 59.5865 26.4289C59.0431 26.353 58.4993 26.2954 58.0916 26.2486L57.4422 26.1798L57.419 26.1666C57.4116 26.1626 57.4062 26.1573 57.3977 26.1517C57.3892 26.1461 57.3958 26.1455 57.3947 26.1422L57.3945 25.7176C57.3986 25.6049 57.3984 25.4885 57.3943 25.3695L57.3848 25.1901C57.3875 25.1537 57.3865 25.117 57.3818 25.0805L57.365 24.9916C57.365 24.9916 57.3974 24.9556 57.3936 24.9299C57.4478 24.7474 57.4825 24.5422 57.5659 24.1432L57.6077 23.9173L57.6043 23.9182L57.6112 23.9266C57.6167 23.9336 57.6233 23.9398 57.6305 23.9451C57.663 23.9722 57.7108 24.0049 57.7647 24.0396C58.0217 24.2027 58.2646 24.3867 58.4905 24.5896C59.2798 25.2106 58.8882 25.6879 58.3272 25.8956C58.1232 25.9804 57.9054 26.0321 57.6822 26.0489C57.5938 26.061 57.5055 26.0737 57.4225 26.0856C57.3786 26.0907 57.3345 26.0952 57.288 26.098C57.2603 26.0996 57.2324 26.0998 57.2045 26.0985C57.1815 26.0955 57.176 26.0976 57.1406 26.0907L57.0686 26.0748L57.0506 26.0705L57.0378 26.0667C57.0049 26.0561 56.9694 26.0449 56.9402 26.0321C56.8074 25.9769 56.6851 25.8991 56.5792 25.8024L56.5416 25.767L56.5238 25.7493C56.5062 25.7304 56.4723 25.6927 56.4421 25.6535C56.3486 25.5318 56.2802 25.3941 56.2407 25.2482C56.176 25.0107 56.1907 24.7617 56.2826 24.5383C56.3746 24.3149 56.5388 24.1288 56.751 24.0077C56.8472 23.9524 56.9517 23.9115 57.0611 23.8864L57.1014 23.8756C57.1377 23.8659 57.1754 23.8625 57.2127 23.858L57.3359 23.8487L57.4086 23.8432L57.4792 23.8352L57.5653 23.8213L57.6317 23.8095L58.3378 23.8825C58.7486 23.9315 59.2962 23.9973 59.8472 24.0621C60.9393 24.201 62.0619 24.3707 62.1135 24.386Z" fill="#0D00D8"/>
<path d="M48.3896 35.2936C48.3956 35.2776 48.3974 35.2717 48.459 35.2708C49.2347 35.2828 49.9916 35.5554 50.6029 36.0429C50.6329 36.064 50.66 36.0891 50.6832 36.1173C50.6829 36.136 50.5692 36.4478 50.4448 36.922L50.2861 37.7443C50.2605 38.051 50.2234 38.3789 50.2016 38.7074C50.2062 39.0408 50.1936 39.3692 50.2077 39.6844L50.277 40.5432L50.406 41.3835L50.3847 41.5368L50.3445 41.9266C50.3061 42.2428 50.2341 42.6531 50.1553 43.009C49.9654 44.2036 49.3417 43.94 48.8602 43.2867C48.5233 42.762 48.2423 42.2062 48.0216 41.6283L47.9801 41.3636C47.9563 41.1942 47.9097 40.9555 47.8785 40.6634L47.7953 39.659C47.7874 39.2881 47.7914 38.8912 47.7912 38.4943L47.896 37.3225L48.0927 36.3029C48.2475 35.7108 48.3893 35.3158 48.3896 35.2936Z" fill="#0D00D8"/>
<path d="M51.2746 55.5372C51.2651 55.5302 51.2619 55.528 51.2776 55.4709C51.3455 55.1901 51.4425 54.9178 51.5673 54.658C51.7572 54.2428 52.0314 53.8718 52.374 53.5666C52.4012 53.5431 52.4325 53.5243 52.4664 53.5111L52.7185 53.6674C52.7942 53.7144 52.8888 53.7709 52.9861 53.8363L53.2949 54.0586C53.5238 54.2205 53.7813 54.4096 54.0362 54.6198C54.2999 54.8265 54.574 55.049 54.8352 55.2774C55.3708 55.7271 55.8731 56.1929 56.2519 56.5433L56.8735 57.1311C56.8735 57.1311 56.9897 57.3305 57.1273 57.6136C57.2895 57.9327 57.4165 58.2668 57.5062 58.61C57.8648 59.6991 57.1768 59.7397 56.5364 59.4829C56.539 59.5243 56.2003 59.327 55.8493 59.1334L55.1522 58.7348L54.5694 58.1853C54.2147 57.8592 53.7427 57.4256 53.2546 57.0185C53.0134 56.8076 52.7678 56.6117 52.5355 56.4291C52.3032 56.2464 52.0873 56.0829 51.9006 55.9506L51.6451 55.7658L51.4521 55.6461L51.2746 55.5372Z" fill="#0D00D8"/>
<path d="M66.4256 67.5844C66.413 67.5878 66.4085 67.589 66.375 67.5371C65.9446 66.8855 65.7129 66.132 65.7082 65.3683C65.7085 65.3325 65.7142 65.2972 65.7253 65.2634C65.744 65.2584 66.0993 65.1746 66.6213 65.0504C66.8914 65.0035 67.2057 64.9484 67.5371 64.8906C67.8685 64.8327 68.2453 64.8119 68.6092 64.7715C68.9731 64.7311 69.3585 64.7532 69.71 64.7441C70.0628 64.7468 70.4006 64.7962 70.6857 64.8171C70.918 64.8403 71.149 64.879 71.377 64.9329L71.6396 64.9841L71.7964 65.0637C71.9285 65.1312 72.0543 65.2104 72.1723 65.3C72.5038 65.5146 72.7964 65.7829 73.0367 66.0929C73.4425 66.5646 73.4454 66.8516 73.2874 67.0303C73.0681 67.2124 72.7835 67.3042 72.4908 67.2872C72.4968 67.3063 72.4138 67.303 72.2846 67.2902C72.1555 67.2773 71.9707 67.2874 71.796 67.2807C71.6213 67.274 71.4502 67.2627 71.3162 67.2797L71.0971 67.3002L70.9108 67.2625C70.7471 67.2218 70.5804 67.1961 70.4128 67.1856C70.2009 67.1761 69.963 67.1267 69.6898 67.1361C69.4166 67.1454 69.1317 67.1251 68.8394 67.1621C68.5472 67.1991 68.253 67.2062 67.9725 67.2614C67.6921 67.3165 67.4312 67.3573 67.2057 67.3971C66.7513 67.5086 66.442 67.58 66.4256 67.5844Z" fill="#0D00D8"/>
<path d="M91.0026 66.7119C90.9831 66.7172 90.9757 66.7192 90.9324 66.6695C90.6675 66.3697 90.469 66.0199 90.35 65.6433C90.231 65.2667 90.1942 64.8721 90.2422 64.4857C90.2462 64.4463 90.2574 64.4082 90.2755 64.3733C90.3012 64.3664 90.7863 64.2349 91.4997 64.0385C91.8562 63.9419 92.2699 63.8298 92.7103 63.7062C93.1508 63.5825 93.6096 63.4422 94.0727 63.3057C94.5358 63.1691 94.9993 63.038 95.4271 62.9036C95.8499 62.7608 96.2441 62.6281 96.5818 62.5145C97.2548 62.2879 97.7063 62.136 97.7063 62.136C97.7063 62.136 98.025 62.1013 98.4453 62.0384C98.9259 61.9713 99.4116 61.9361 99.899 61.9328C101.492 61.8461 101.21 62.5476 100.449 63.1753C100.168 63.4205 99.8615 63.6372 99.5349 63.8221C99.2864 63.9816 99.0338 64.146 98.8413 64.2621L98.5163 64.4405C98.5163 64.4405 98.0548 64.5962 97.3604 64.8317C97.0132 64.9486 96.6084 65.0853 96.1735 65.2327C95.7372 65.362 95.2704 65.5002 94.8036 65.6389C94.3369 65.7777 93.8685 65.915 93.4281 66.0448C92.9877 66.1746 92.5772 66.2791 92.2229 66.3769C91.5134 66.5717 91.0288 66.7048 91.0026 66.7119Z" fill="#0D00D8"/>
<path d="M106.779 58.7142C106.762 58.7229 106.756 58.7257 106.706 58.6865C106.091 58.1806 105.686 57.4733 105.573 56.706C105.565 56.6697 105.563 56.6325 105.567 56.596C105.582 56.5788 105.928 56.4151 106.407 56.1117C106.639 55.9477 106.921 55.776 107.201 55.5613C107.472 55.333 107.779 55.1121 108.055 54.8549C108.325 54.5893 108.615 54.3462 108.852 54.0819C109.089 53.8176 109.318 53.5781 109.503 53.3619L110.092 52.6197C110.092 52.6197 110.146 52.583 110.229 52.5152C110.312 52.4474 110.429 52.3513 110.57 52.242C110.852 52.0275 111.23 51.762 111.566 51.5449C112.643 50.7604 112.89 51.4135 112.724 52.2658C112.676 52.5892 112.577 52.9019 112.431 53.193L112.16 53.8484C112.083 54.0285 112.019 54.142 112.019 54.142L111.358 54.9751C111.143 55.2145 110.89 55.4891 110.619 55.7858C110.349 56.0825 110.019 56.3662 109.708 56.6659C109.386 56.9559 109.035 57.2207 108.719 57.4818C108.389 57.7291 108.059 57.9392 107.784 58.1297C107.217 58.4921 106.796 58.6962 106.779 58.7142Z" fill="#0D00D8"/>
<path d="M118.409 44.4373C118.402 44.4482 118.4 44.4524 118.34 44.4383C117.578 44.2654 116.876 43.8831 116.319 43.3374C116.292 43.3125 116.269 43.2839 116.251 43.2528L118.712 38.8085C119.081 38.4583 119.49 38.1515 119.933 37.894C120.862 37.2955 121.151 37.8969 121.117 38.5655C121.055 39.0671 120.958 39.5629 120.828 40.0496L118.409 44.4373Z" fill="#0D00D8"/>
<path d="M130.435 30.857C130.418 30.8615 130.414 30.8659 130.366 30.823C129.758 30.2989 129.369 29.5733 129.279 28.7943C129.275 28.7559 129.278 28.7173 129.288 28.6804C129.311 28.6741 129.738 28.4582 130.373 28.1909C131.008 27.9236 131.86 27.5985 132.708 27.3148C133.556 27.0311 134.404 26.7713 135.039 26.5826C135.674 26.3939 136.096 26.2799 136.096 26.2799C136.778 26.2424 137.465 26.2691 138.147 26.3596C139.603 26.5036 139.242 27.1603 138.525 27.655C138.26 27.8487 137.975 28.0138 137.673 28.1478L136.752 28.6229C136.752 28.6229 136.346 28.7398 135.736 28.9156C135.127 29.0915 134.326 29.3438 133.536 29.6132C133.138 29.7447 132.753 29.8953 132.384 30.027C132.014 30.1586 131.689 30.3072 131.398 30.4226C130.827 30.6621 130.459 30.8512 130.435 30.857Z" fill="#0D00D8"/>
<path d="M127.182 22.3823C127.155 22.3705 127.129 22.3531 127.109 22.3314C127.088 22.3097 127.072 22.2841 127.062 22.2563C126.845 21.9388 126.758 21.5562 126.821 21.1878C126.913 20.8021 127.26 20.4617 128.05 20.2934C128.119 20.282 128.189 20.2817 128.258 20.2924C128.839 20.5865 129.414 20.8947 130.024 21.1434C130.628 21.4029 131.218 21.6807 131.842 21.9034C134.35 22.8849 136.979 23.6627 139.624 24.5419L140.617 24.8747L140.866 24.9574L140.991 24.9996C141.059 25.0223 141.142 25.0519 141.224 25.0817L142.194 25.4345L144.135 26.1405L145.105 26.4939L145.343 26.5805C145.36 26.5833 145.352 26.589 145.341 26.5957L145.313 26.6138L145.26 26.6504L145.152 26.7238L144.722 27.0164C144.156 27.4088 143.555 27.796 143.044 28.1878L142.252 28.7743L141.856 29.0675C141.781 29.1316 141.74 29.1762 141.681 29.2311C141.465 29.4461 141.231 29.643 141.028 29.8707C140.824 30.0984 140.614 30.3202 140.42 30.5575C140.225 30.8142 140.021 31.0627 139.833 31.3243C139.655 31.5941 139.468 31.8582 139.293 32.1309C139.123 32.4254 138.945 32.7134 138.781 33.0129C138.618 33.3124 138.464 33.6177 138.317 33.9284L138.042 34.4276C137.86 34.7362 137.644 35.1931 137.377 35.7135C136.862 36.7643 136.286 38.1468 135.801 39.303C135.555 39.9853 135.263 40.6497 134.928 41.2923C134.716 41.6499 134.575 41.7226 134.482 41.5864C134.302 41.3137 134.325 40.1974 134.519 38.8618C134.658 37.8239 134.874 36.7998 135.165 35.7974C135.383 34.9945 135.642 34.1864 135.864 33.5846L136.142 32.8567C136.209 32.6806 136.258 32.585 136.258 32.585L136.711 31.7108L137.211 30.8547C137.409 30.5425 137.622 30.2374 137.828 29.9285C138.045 29.6267 138.282 29.3357 138.508 29.0391C138.735 28.7625 138.983 28.5022 139.221 28.2333C139.459 27.9644 139.734 27.7295 139.993 27.4765L140.181 27.298L140.201 27.2819L140.239 27.2506L140.264 27.2305L138.919 26.7803C136.324 25.9197 133.651 25.1329 131.008 24.1006C130.356 23.8677 129.719 23.57 129.077 23.2936C128.431 23.0304 127.809 22.6988 127.182 22.3823Z" fill="#0D00D8"/>
</g>
</svg>
