<svg width="15" height="15" viewBox="0 0 15 15" fill="none" xmlns="http://www.w3.org/2000/svg">
<path opacity="0.2" d="M12.7903 7.50971C12.7903 8.57278 12.4609 9.61199 11.8439 10.4959C11.2269 11.3798 10.3499 12.0687 9.3239 12.4755C8.29785 12.8823 7.16882 12.9888 6.07957 12.7814C4.99033 12.574 3.98978 12.0621 3.20448 11.3104C2.41918 10.5587 1.88437 9.60098 1.66771 8.55835C1.45104 7.51571 1.56226 6.43497 1.98726 5.45283C2.41226 4.47069 3.13197 3.63123 4.05538 3.04062C4.9788 2.45002 6.06447 2.13477 7.17506 2.13477C7.91249 2.13465 8.64271 2.27362 9.32404 2.5437C10.0054 2.81377 10.6244 3.20967 11.1459 3.70881C11.6673 4.20794 12.0809 4.8005 12.3631 5.45267C12.6452 6.10484 12.7904 6.80384 12.7903 7.50971V7.50971Z" stroke="#0D00D8" stroke-width="3" stroke-linecap="round" stroke-linejoin="round"/>
</svg>
