<svg width="51" height="49" viewBox="0 0 51 49" fill="none" xmlns="http://www.w3.org/2000/svg">
<g opacity="0.2">
<path d="M25.3479 47.3941C21.1986 47.3923 17.1232 46.3426 13.5332 44.3509L4.30668 47.3941L6.20318 38.0394C3.24155 34.1784 1.65022 29.5107 1.66255 24.7208C1.66243 20.2363 3.05161 15.8525 5.65441 12.1237C8.25721 8.3949 11.9567 5.48865 16.2851 3.77245C20.6135 2.05625 25.3764 1.60718 29.9714 2.48204C34.5664 3.3569 38.7873 5.51638 42.1001 8.68741C45.4129 11.8584 47.669 15.8986 48.583 20.2969C49.4969 24.6953 49.0278 29.2543 47.2348 33.3974C45.4419 37.5405 42.4057 41.0817 38.5102 43.5731C34.6146 46.0645 30.0348 47.3942 25.3497 47.3941H25.3479Z" stroke="#0D00D8" stroke-width="3" stroke-linecap="round" stroke-linejoin="round"/>
<path d="M11.69 14.7712C11.69 14.7712 13.277 12.1143 14.5711 11.9627C15.8652 11.8112 17.5319 11.81 17.9807 12.6202C18.4296 13.4305 20.4392 18.1352 20.4392 18.1352C20.5352 18.3974 20.5683 18.6769 20.5362 18.9531C20.504 19.2293 20.4074 19.495 20.2534 19.7305C19.7364 20.4143 19.1625 21.0571 18.5373 21.6524C18.3509 21.8943 18.2504 22.1869 18.2504 22.4874C18.2504 22.788 18.3509 23.0806 18.5373 23.3224C19.6549 24.9245 20.9294 26.421 22.3434 27.7918C24.459 29.8208 28.5258 31.2675 28.5258 31.2675C28.6959 31.2867 28.8684 31.2719 29.0323 31.2241C29.1962 31.1764 29.348 31.0967 29.4782 30.99C29.8484 30.6356 31.8592 28.2317 31.8592 28.2317C32.0652 27.9997 32.347 27.8411 32.6589 27.7817C32.9709 27.7222 33.2946 27.7653 33.5777 27.9041C34.6492 28.3724 39.2851 30.582 39.2851 30.582C39.4689 30.6715 39.6195 30.8129 39.7165 30.9871C39.8135 31.1613 39.8522 31.3598 39.8274 31.5558C39.8274 32.3409 39.4958 34.2588 38.8154 34.9078C38.135 35.5568 36.1552 37.5567 33.1783 37.5567C30.2014 37.5567 23.1083 35.2377 19.329 31.6202C15.5497 28.0026 12.1924 24.3327 11.4025 20.9949C10.6126 17.6571 10.712 16.1461 11.69 14.7712Z" stroke="#0D00D8" stroke-width="3" stroke-linecap="round" stroke-linejoin="round"/>
</g>
</svg>
