<svg width="132" height="110" viewBox="0 0 132 110" fill="none" xmlns="http://www.w3.org/2000/svg">
<g opacity="0.2">
<path d="M25.3567 66.1015C25.3934 66.1259 25.4036 66.1335 25.42 66.2179C25.4621 66.3748 25.4925 66.5351 25.511 66.6974C25.5384 66.8942 25.535 67.0953 25.5007 67.2935C25.4622 67.5238 25.3444 67.7363 25.168 67.8939C24.8747 68.1284 24.5113 68.2532 24.1436 68.2459C24.054 68.2431 23.9658 68.2269 23.882 68.1979C23.5021 67.939 23.1563 67.6347 22.8516 67.2912C22.5216 66.9242 22.2398 66.5162 22.0124 66.0763C21.7124 65.5038 21.5154 64.8799 21.4301 64.232L21.4006 63.9588L21.3938 63.8898L21.3889 63.7093L21.3831 63.4566C21.385 63.379 21.3921 63.3123 21.3958 63.2396L21.4256 62.8102L21.457 62.3805C21.4715 62.2404 21.4931 62.1065 21.5113 61.969C21.8277 59.8026 22.3218 57.659 22.9883 55.5601C23.1425 55.0288 23.346 54.4934 23.5091 53.9722C23.6721 53.4511 23.8347 52.9435 23.9985 52.4259C24.3266 51.391 24.6567 50.348 24.9887 49.297C25.628 47.1613 26.2475 44.9929 26.9331 42.7984C28.2883 38.4197 29.677 33.9335 31.099 29.3398C31.4488 28.194 31.8002 27.0429 32.153 25.8865C32.5119 24.7302 32.8231 23.5569 33.1625 22.3844C33.502 21.212 33.8311 20.0307 34.1671 18.8466C34.3457 18.2428 34.503 17.6591 34.7214 17.0096C34.9417 16.3032 35.2587 15.6273 35.6631 15.0015C36.1535 14.2511 36.8594 13.663 37.6827 13.3188C37.8758 13.2532 38.0838 13.1749 38.2669 13.1289C38.45 13.0829 38.6358 13.0251 38.8269 12.9924C39.018 12.9597 39.2134 12.9314 39.4046 12.9083L39.9652 12.8767C41.332 12.9013 42.6808 13.1192 43.9717 13.5239C44.5895 13.6976 45.1923 13.8868 45.7786 14.0691L46.6436 14.328L47.5078 14.5623L51.1457 15.5471C52.3581 15.8796 53.5874 16.1982 54.795 16.5454L58.4292 17.587C60.8517 18.3059 63.3116 18.9196 65.7738 19.5792L73.1911 21.5452L80.6784 23.5589L95.6191 27.672L103.111 29.7396L106.839 30.7708C107.47 30.9522 108.107 31.152 108.739 31.3463L109.692 31.6941L110.168 31.8679C110.249 31.8992 110.321 31.9213 110.41 31.9602L110.67 32.081C111.046 32.2513 111.401 32.4638 111.727 32.7146C112.105 33.0118 112.419 33.381 112.654 33.8024C112.877 34.2283 113.013 34.6969 113.055 35.1821C113.089 35.5941 113.079 36.0103 113.026 36.4237C112.928 37.1328 112.778 37.8357 112.576 38.5265L112.015 40.4251C111.64 41.6869 111.266 42.9464 110.893 44.2035C110.53 45.4471 110.169 46.6886 109.808 47.9278C109.067 50.3889 108.419 52.9083 107.738 55.3876C107.074 57.8718 106.364 60.3428 105.686 62.7988C105.354 64.028 104.977 65.2472 104.615 66.464C104.253 67.6809 103.889 68.8936 103.53 70.1009C103.359 70.7071 103.159 71.3058 102.959 71.9031C102.758 72.5004 102.564 73.0989 102.365 73.6937C101.97 74.8853 101.577 76.071 101.186 77.2509L100.898 78.1084C100.808 78.3882 100.718 78.6695 100.634 78.9548C100.463 79.5256 100.304 80.1087 100.138 80.7062C99.9728 81.3036 99.7971 81.9132 99.5704 82.5466C99.3382 83.2264 99.0224 83.8777 98.6305 84.485C98.4014 84.8256 98.134 85.1395 97.8338 85.4204C97.5165 85.7101 97.1604 85.9535 96.7767 86.1428C96.0623 86.4834 95.2875 86.6642 94.5082 86.6722C93.8288 86.6879 93.1526 86.6327 92.4903 86.5073C92.1735 86.4502 91.8619 86.3848 91.5577 86.311C91.2535 86.2372 90.9492 86.1578 90.6772 86.0772L84.028 84.1963C81.8473 83.5981 79.7055 82.9552 77.555 82.4697L71.1957 80.925L68.0649 80.1607C67.0268 79.9102 66.0031 79.6563 64.9982 79.3935L59.052 77.8657L53.3199 76.3227L50.5449 75.5765L47.8768 74.8956C46.0772 74.475 44.3198 74.0835 42.593 73.6509C41.7315 73.4387 40.8792 73.2395 40.0433 73.0201L37.5788 72.3294L34.8491 71.5671L33.7643 71.2683L32.8166 71.0089C32.8166 71.0089 31.916 70.7095 30.7078 70.2813C30.1039 70.076 29.4185 69.7912 28.7354 69.52C28.0631 69.2638 27.4061 68.9717 26.7673 68.6449C24.7113 67.6474 24.1899 67.1744 24.5056 67.0235C24.8213 66.8727 25.9791 67.0424 27.3233 67.348C27.6253 67.3925 27.9238 67.4546 28.2172 67.5342L30.4586 68.0031L33.849 68.6644L34.8165 68.9309L37.708 69.7342C40.6507 70.5936 43.8035 71.3672 47.2031 72.1423L48.482 72.4374L49.7917 72.7719C50.6693 72.9965 51.567 73.221 52.4349 73.4602L57.8114 74.9111C59.635 75.4168 61.5332 75.8843 63.452 76.3818C65.3708 76.8792 67.3348 77.3873 69.3185 77.8611L75.3902 79.3406L78.5284 80.1005L80.1144 80.4849C80.6458 80.6118 81.1677 80.7726 81.6974 80.9155L88.101 82.7031L91.3444 83.6235L91.7525 83.7393L92.138 83.8343C92.3976 83.9055 92.6497 83.9478 92.9054 84.0051C93.391 84.0984 93.8856 84.1483 94.3834 84.1541C94.7989 84.1647 95.2157 84.0944 95.6107 83.9472C95.9467 83.8064 96.2397 83.5747 96.4555 83.2788C97.004 82.3992 97.3991 81.4368 97.6231 80.4346C97.9407 79.3117 98.2562 78.1095 98.6778 76.9035C99.0556 75.7631 99.4355 74.6179 99.8174 73.468C100.196 72.3164 100.587 71.164 100.959 70.0002C101.31 68.8282 101.661 67.6511 102.014 66.4691C102.363 65.2865 102.731 64.1063 103.068 62.9105C103.404 61.7146 103.736 60.5121 104.072 59.307C104.753 56.9003 105.406 54.4646 106.069 52.0189C106.708 49.577 107.459 47.1044 108.173 44.6284C108.535 43.4036 108.897 42.1762 109.261 40.9464C109.443 40.3334 109.625 39.7198 109.807 39.1057C109.988 38.4928 110.184 37.8677 110.32 37.2941C110.46 36.7722 110.541 36.2385 110.562 35.7032C110.562 35.5227 110.535 35.3442 110.481 35.1742C110.431 35.0409 110.353 34.9202 110.254 34.8194C110.109 34.6815 109.945 34.565 109.766 34.4729C109.534 34.3461 109.29 34.24 109.038 34.1555C108.469 33.9587 107.929 33.725 107.328 33.5595C106.739 33.3794 106.153 33.1967 105.54 33.0349L103.698 32.5247L100.017 31.5089L92.6591 29.4789L85.2688 27.4387L81.5758 26.4194L77.9019 25.4308L70.5702 23.4605L63.2299 21.5209C62.0116 21.1954 60.7902 20.8849 59.5818 20.5483L55.9729 19.5141C53.5701 18.8091 51.1879 18.1794 48.8179 17.5363L47.0432 17.0557C46.4753 16.9011 45.7977 16.7274 45.2116 16.5423C44.0207 16.1755 42.8977 15.8118 41.7893 15.5863C41.2638 15.4732 40.7276 15.4065 40.1868 15.3869C39.942 15.378 39.6961 15.3877 39.4513 15.4156C39.3374 15.4368 39.2233 15.4443 39.1089 15.471L38.7663 15.5626C38.5897 15.6091 38.421 15.6843 38.2669 15.7853C38.1169 15.8829 37.9835 16.0047 37.8725 16.1454C37.5857 16.5232 37.363 16.9443 37.2136 17.3908C37.0254 17.8939 36.8653 18.4599 36.693 19.0494C36.5206 19.639 36.3585 20.222 36.1916 20.8061C35.8597 21.9797 35.528 23.1479 35.1965 24.3106C35.0293 24.8918 34.8715 25.4754 34.6973 26.0498C34.5231 26.6241 34.346 27.2007 34.1711 27.7737C33.821 28.9202 33.4732 30.0605 33.1274 31.1944C32.422 33.4563 31.7245 35.6941 31.035 37.9078C30.355 40.1167 29.6833 42.2998 29.0198 44.4569C28.356 46.6178 27.7601 48.7523 27.0943 50.8686C26.7574 51.9281 26.4238 52.9802 26.0936 54.0249C26.0108 54.2859 25.9282 54.5463 25.8458 54.8063L25.5942 55.5512C25.4309 56.0456 25.2791 56.5407 25.1355 57.0383C24.85 58.034 24.5946 59.032 24.3819 60.0212C24.2679 60.5154 24.1919 61.0036 24.0972 61.4906C24.0397 61.9648 23.9422 62.4619 23.9281 62.9014L23.9036 63.2394C23.9001 63.2951 23.8918 63.3582 23.8941 63.4017L23.8981 63.5317L23.8994 63.6163L23.9081 63.6903L23.9228 63.836C24.0773 64.7598 24.5914 65.5713 25.354 66.0952L25.3567 66.1015Z" fill="#7E76F9"/>
<path d="M85.0266 92.3838C84.9971 92.3784 84.9694 92.3666 84.9453 92.3492C84.9213 92.3319 84.9014 92.3094 84.8872 92.2833C84.4554 91.8008 83.958 90.7196 85.534 89.9968C85.6037 89.9686 85.6771 89.9517 85.7513 89.9468L89.4344 90.8984L89.6383 90.9487L89.8468 91.0028C90.4722 91.1647 91.0992 91.331 91.734 91.4675L95.5727 92.3325L97.553 92.7822C98.2328 92.9496 98.888 93.133 99.5207 93.2928C100.115 93.4546 100.722 93.5721 101.337 93.6445C101.81 93.7155 102.299 93.6664 102.758 93.5017C103.144 93.3196 103.46 93.0092 103.647 92.6251C103.785 92.3785 103.9 92.1201 103.989 91.8535C104.101 91.5206 104.214 91.1877 104.328 90.8548C104.554 90.1883 104.78 89.5192 105.008 88.8474C105.23 88.1736 105.474 87.5074 105.669 86.8139C106.08 85.4376 106.493 84.0517 106.909 82.6561C107.315 81.2477 107.723 79.8311 108.133 78.4063C108.568 76.976 109.005 75.5376 109.444 74.0911C109.901 72.6614 110.362 71.223 110.825 69.776C111.277 68.3312 111.732 66.8784 112.19 65.4176C112.625 63.9551 113.061 62.4848 113.5 61.0068C113.901 59.526 114.304 58.0383 114.71 56.5439C115.099 55.025 115.489 53.4997 115.881 51.968C116.077 51.2015 116.274 50.4331 116.471 49.6628C116.687 48.8972 116.906 48.1299 117.126 47.3609C117.565 45.8224 118.007 44.2782 118.45 42.7281C118.937 41.1274 119.517 39.6199 120.022 38.1122C120.545 36.6607 120.938 35.1699 121.196 33.6581L121.286 32.57C121.305 32.2519 121.291 31.9341 121.245 31.6214C121.16 31.0545 120.91 30.5314 120.526 30.1169C119.728 29.2524 118.336 28.6982 116.871 28.2768C116.126 28.0706 115.33 27.8448 114.558 27.6196L112.222 26.9454L107.556 25.6199C105.997 25.1896 104.432 24.7986 102.863 24.3839L93.2892 22.1989L90.8652 21.6422L88.4715 21.0081L83.678 19.7304C77.317 17.9293 70.9692 16.3266 64.5177 14.6L59.7377 13.2606C58.1447 12.8117 56.5584 12.3923 54.9694 11.9569C54.175 11.7437 53.383 11.5182 52.5883 11.314L50.1965 10.7425L47.8075 10.1712L46.6127 9.88663L45.4023 9.61743L40.573 8.54135L38.163 8.00448L36.9591 7.73629L35.7653 7.45195C35.0964 7.27981 34.4002 7.21605 33.7027 7.26306C33.3791 7.29514 33.0582 7.35958 32.745 7.45539C32.5892 7.51151 32.4319 7.5576 32.2784 7.62954L32.0478 7.73112L31.8781 7.82849C31.6492 7.9624 31.448 8.14028 31.2866 8.35141C31.193 8.46735 31.1066 8.58893 31.0282 8.71538C30.9527 8.85968 30.8678 8.99151 30.7999 9.1524C30.4991 9.84963 30.2581 10.5692 30.0796 11.3031C29.9689 11.7046 29.8598 12.1138 29.7226 12.5495C29.6588 12.7572 29.5655 12.9922 29.5181 13.1734L29.3476 13.7485L29.0063 14.8975C28.8948 15.2819 28.7705 15.6562 28.6783 16.0572C28.4831 16.8485 28.2882 17.6389 28.0936 18.4285C27.903 19.2342 27.7116 20.0383 27.5196 20.841C27.0981 22.4578 26.6554 24.0937 26.1892 25.643C25.7291 27.2126 25.2702 28.7776 24.8123 30.338C23.8979 33.4572 22.9891 36.5563 22.086 39.6353C21.6351 41.1739 21.1856 42.707 20.7375 44.2343C20.3171 45.7677 19.8985 47.2948 19.4818 48.8155C18.6487 51.8566 17.8233 54.8712 17.0056 57.8592C16.5966 59.3524 16.1897 60.8385 15.7848 62.3172C15.5824 63.0562 15.3806 63.7935 15.1792 64.529C14.9809 65.2675 14.7766 66.0215 14.5971 66.7251C14.4175 67.3767 14.2964 68.0409 14.2354 68.7096L14.2226 68.9288L14.2341 69.1256C14.2397 69.1886 14.2352 69.2599 14.2465 69.317L14.2806 69.4849C14.3008 69.5888 14.3321 69.6898 14.3739 69.7862C14.4082 69.8823 14.4779 69.9543 14.5164 70.0475C14.8477 70.4416 15.2801 70.7376 15.7704 70.9061C15.911 70.971 16.0565 71.0258 16.2056 71.0698C16.3592 71.1201 16.4934 71.1718 16.6658 71.2227L17.7125 71.5308C20.5029 72.3441 23.2547 73.1733 25.9707 73.9433L34.0057 76.1996L41.8453 78.3699L56.6965 82.4794L63.674 84.4108L70.3941 86.0617L76.7756 87.6263C77.8105 87.8772 78.8296 88.1321 79.832 88.397L80.2374 88.5025L81.3483 88.793L82.3161 89.0455C82.3161 89.0455 83.2153 89.3472 84.4209 89.7793C85.6245 90.199 87.1344 90.7303 88.3721 91.2347C92.5973 92.8272 90.7331 92.9474 87.9241 92.5696C88.0593 92.6312 86.3984 92.3472 84.6986 92.0463C83.8448 91.901 83.0057 91.725 82.3627 91.6034L81.2957 91.3972L51.1517 83.5785L36.5202 79.5287L28.7953 77.3742L24.8346 76.2609C23.5034 75.889 22.1829 75.4869 20.8422 75.0973L16.8001 73.9097L15.7803 73.6094L15.2097 73.4179L14.9252 73.3202L14.6379 73.1929C14.4466 73.1022 14.2564 73.035 14.065 72.9206C13.8736 72.8061 13.6814 72.6949 13.4916 72.5746C13.3053 72.4286 13.1206 72.2785 12.9403 72.1249C12.7683 71.9423 12.6011 71.7541 12.4459 71.5552C12.302 71.3391 12.1746 71.1121 12.0648 70.876C11.869 70.4168 11.7543 69.9245 11.7254 69.4202L11.7075 69.0662C11.7066 68.9529 11.715 68.8418 11.7209 68.7302C11.7807 67.9153 11.9184 67.105 12.1319 66.3104C12.3204 65.5649 12.5152 64.8566 12.7042 64.143C12.8932 63.4293 13.0982 62.7026 13.2961 61.9793C14.88 56.1946 16.4964 50.291 18.1452 44.2685C19.8963 38.2844 21.6747 32.2067 23.4805 26.0354C23.7062 25.2652 23.9325 24.4938 24.1593 23.7212C24.3884 22.9467 24.5761 22.1982 24.7874 21.4335C25.0006 20.68 25.182 19.8943 25.3674 19.1124L25.6473 17.937L25.9411 16.7441C26.1441 15.9456 26.3144 15.1538 26.573 14.3425L26.9338 13.1304C27.0546 12.737 27.1755 12.2917 27.2964 11.9634C27.523 11.263 27.7079 10.4651 27.9714 9.62447C28.2339 8.6964 28.6487 7.81289 29.1986 7.01085C29.5351 6.55842 29.9418 6.16169 30.4022 5.83662C30.5214 5.75606 30.6444 5.68157 30.7707 5.61345C30.8873 5.54354 31.0079 5.48104 31.1319 5.42635C31.3558 5.32138 31.5848 5.22822 31.8177 5.14726C32.7577 4.81408 33.7488 4.67681 34.7285 4.7441C35.607 4.82289 36.4732 4.98186 37.3166 5.21905L39.669 5.74176L44.4052 6.79492C45.9843 7.14474 47.568 7.49228 49.1637 7.8841C50.7595 8.27591 52.3561 8.63288 53.941 9.03954L58.6704 10.3246C60.2499 10.752 61.808 11.1996 63.3793 11.6363L65.7318 12.2936L68.0862 12.9141L77.5571 15.4075C80.7129 16.2463 83.8451 17.1624 86.9792 17.9788L91.6731 19.2195L96.3813 20.2985L101.131 21.3738C101.925 21.5585 102.727 21.7193 103.513 21.923L105.868 22.5368C106.649 22.7448 107.441 22.937 108.214 23.1586L110.536 23.8158L115.141 25.1358C115.908 25.3542 116.657 25.5797 117.442 25.7889C118.265 26.0114 119.07 26.2917 119.851 26.6276C120.709 26.9911 121.494 27.5015 122.17 28.1365C122.903 28.8402 123.415 29.7437 123.648 30.7442C123.756 31.2217 123.806 31.7127 123.797 32.2068C123.8 32.4324 123.789 32.6585 123.765 32.884L123.711 33.5403L123.682 33.8676L123.626 34.1869L123.51 34.8247C123.436 35.2432 123.342 35.6587 123.227 36.0694C122.805 37.7015 122.254 39.2462 121.723 40.744C121.464 41.4912 121.197 42.235 120.972 42.9635C120.852 43.3241 120.742 43.6988 120.636 44.0826L120.314 45.2189C119.883 46.7316 119.454 48.2387 119.026 49.74C118.615 51.2458 118.247 52.7571 117.86 54.2562C117.473 55.7554 117.099 57.2471 116.684 58.7564C116.481 59.5078 116.279 60.2576 116.078 61.0058C115.874 61.7534 115.645 62.487 115.431 63.2255C115.216 63.964 114.996 64.6977 114.779 65.4312C114.563 66.1646 114.326 66.8876 114.102 67.6134C113.65 69.0644 113.199 70.5064 112.736 71.9315C112.506 72.6453 112.277 73.3572 112.049 74.0672C111.822 74.7768 111.616 75.4794 111.4 76.183C110.522 78.9816 109.754 81.8038 108.925 84.5818C108.717 85.2776 108.51 85.9713 108.304 86.6629C108.092 87.3535 107.905 88.0444 107.664 88.7282C107.2 90.1021 106.739 91.466 106.278 92.8199C105.975 93.6898 105.458 94.4763 104.775 95.1046C104.388 95.4411 103.945 95.7044 103.468 95.8808C103.024 96.0423 102.56 96.1379 102.093 96.1644C101.297 96.1964 100.505 96.1219 99.7371 95.9428C99.0256 95.7925 98.3653 95.6096 97.7261 95.4409L96.7869 95.2017L95.8409 94.9868L93.8984 94.5492C92.6099 94.2557 91.3271 93.9777 90.0661 93.6779L88.6868 93.3219L85.0266 92.3838Z" fill="#7E76F9"/>
<path d="M3.3324 71.391C3.34281 71.3595 3.35941 71.3302 3.38121 71.3051C3.403 71.2799 3.42954 71.2594 3.45914 71.2447C3.61864 71.1095 3.80269 71.0078 4.00011 70.9457C4.19754 70.8836 4.4042 70.8625 4.60753 70.8836C5.02683 70.9624 5.39352 71.3194 5.65791 72.0906C5.67761 72.1586 5.68563 72.2298 5.68165 72.3011C5.42918 72.9304 5.21488 73.5737 5.03996 74.2274C4.99234 74.3886 4.96781 74.5441 4.92946 74.7024L4.87657 74.9385L4.84589 75.1618C4.81884 75.3051 4.80252 75.45 4.79711 75.5953L4.79244 75.798L4.78844 75.8992L4.78835 75.9119C4.78888 75.9265 4.78508 75.8908 4.78942 75.9699C4.79094 76.0768 4.79817 76.1833 4.81109 76.2891C4.82063 76.3844 4.83712 76.4788 4.86043 76.5713C4.87875 76.665 4.90491 76.7566 4.93863 76.8453C5.24306 77.6233 5.81132 78.2599 6.54385 78.6437C6.73636 78.755 6.93647 78.8527 7.1428 78.9362C7.23383 78.9778 7.38772 79.0295 7.5095 79.0766L7.89688 79.22L9.44566 79.7946C10.4735 80.1908 11.5239 80.5291 12.5661 80.8872C13.6053 81.2539 14.6643 81.5696 15.7164 81.902C19.9366 83.2045 24.2337 84.3157 28.5508 85.424C32.8753 86.5219 37.1774 87.6951 41.4875 88.8391L54.4119 92.2869L80.2685 99.125L86.7039 100.785L89.9212 101.615C90.9878 101.897 92.1379 102.142 93.2238 102.433L96.4568 103.355C97.5224 103.661 98.5903 103.983 99.652 104.255L101.246 104.681L102.869 105.1C103.845 105.387 104.854 105.559 105.875 105.612C106.114 105.627 106.338 105.588 106.57 105.584C106.797 105.565 106.999 105.507 107.216 105.478C107.556 105.389 107.872 105.22 108.139 104.985C108.411 104.719 108.621 104.395 108.754 104.039C108.925 103.579 109.055 103.106 109.141 102.625C109.245 102.112 109.337 101.528 109.437 100.981C109.437 100.981 109.438 100.976 109.435 100.975L109.023 100.826C108.782 100.732 108.524 100.658 108.272 100.577C108.021 100.497 107.763 100.421 107.504 100.349C107.244 100.276 106.985 100.202 106.719 100.133C105.664 99.8535 104.578 99.599 103.474 99.3014L100.248 98.4246L93.7973 96.6712C89.4996 95.4859 85.187 94.3881 80.8797 93.2564L67.9408 89.8759C64.5601 88.9852 61.1688 88.123 57.7974 87.2087L47.6941 84.4263L27.4944 78.8628L12.878 74.8364C12.878 74.8364 11.9716 74.5179 10.755 74.0629L8.77232 73.3042C8.09096 73.044 7.39156 72.767 6.76127 72.5002C6.22373 72.2851 5.78292 72.0785 5.435 71.9047C5.16019 71.7622 4.89818 71.5966 4.6517 71.4095C4.29503 71.1376 4.25357 70.9711 4.41371 70.9031C4.75193 70.8292 5.09985 70.8302 5.43332 70.9061C5.66694 70.9458 5.9649 70.9614 6.26747 71.0076L7.25265 71.1526C7.565 71.1704 7.87429 71.2169 8.17675 71.2914C8.79164 71.4019 9.65191 71.5608 10.4957 71.7386L13.9276 72.4529L30.2117 76.9339L49.4185 82.2234L59.0225 84.868L68.6504 87.3928L81.5894 90.7727C85.904 91.9068 90.2326 93.0082 94.5259 94.1929L100.978 95.9431L104.203 96.8198C105.25 97.1024 106.335 97.3565 107.435 97.6478C107.709 97.7174 107.985 97.7949 108.262 97.8746C108.54 97.9543 108.815 98.0307 109.094 98.1228C109.373 98.2149 109.65 98.2933 109.928 98.3998L110.346 98.5514L110.505 98.6097C110.562 98.6296 110.629 98.6574 110.692 98.6849L111.073 98.8483L111.838 99.1747L112.22 99.3375L112.316 99.378C112.352 99.3873 112.385 99.402 112.361 99.4472L112.313 99.6574C112.182 100.217 112.061 100.78 111.942 101.343C111.837 101.919 111.753 102.461 111.631 103.068C111.513 103.71 111.335 104.342 111.1 104.954C110.821 105.672 110.387 106.322 109.829 106.853C109.242 107.386 108.538 107.769 107.78 107.967C107.441 108.028 107.092 108.111 106.76 108.14C106.431 108.155 106.094 108.198 105.773 108.182C104.555 108.127 103.352 107.93 102.187 107.594L100.573 107.176L98.9376 106.74C97.8401 106.458 96.7753 106.136 95.7003 105.828L92.5058 104.917C91.4394 104.632 90.4058 104.414 89.3181 104.127L86.0608 103.288L79.5466 101.608L53.6971 94.7727L40.7831 91.3282C36.4776 90.1859 32.1813 89.0119 27.8631 87.9179C23.546 86.8096 19.2072 85.6918 14.9152 84.3641C13.8442 84.0264 12.7685 83.7036 11.7081 83.3316C10.6452 82.9664 9.57562 82.6215 8.52672 82.2177L6.94658 81.6317L6.55154 81.4852C6.41395 81.4318 6.30289 81.3972 6.14219 81.3269C5.83255 81.2022 5.53231 81.0559 5.24356 80.8891C4.64778 80.5518 4.10981 80.1216 3.64876 79.6138C3.15902 79.0809 2.78283 78.4508 2.54247 77.7607C2.47904 77.5858 2.42763 77.4064 2.38866 77.2237C2.34532 77.0423 2.31326 76.8581 2.29269 76.672C2.27127 76.4966 2.25874 76.3199 2.25513 76.1426L2.252 76.0777L2.25221 76.0604L2.25238 76.0495L2.25256 76.0282L2.25628 75.8559L2.26528 75.5116C2.27512 75.2926 2.29894 75.0741 2.33664 74.8574L2.38375 74.5372L2.44905 74.2373C2.49504 74.0387 2.53192 73.832 2.58754 73.6417C2.78939 72.8778 3.03818 72.1261 3.3324 71.391Z" fill="#7E76F9"/>
<path d="M48.253 86.6745C48.2951 86.6367 48.3478 86.6134 48.403 86.6081C48.4754 86.5877 48.5504 86.581 48.6243 86.5883C48.6955 86.5889 48.7658 86.6005 48.8327 86.6229C48.8885 86.6411 48.9398 86.6705 48.9836 86.7092C49.0275 86.7479 49.063 86.7953 49.0881 86.8485C49.1237 86.9599 49.1268 87.0804 49.097 87.1956C49.0544 87.3271 49.0577 87.4678 49.1062 87.5941C49.1147 87.6099 49.1247 87.6248 49.1363 87.6384L49.152 87.6671C49.1621 87.6887 49.174 87.7093 49.1874 87.7288C49.2521 87.83 49.33 87.9217 49.4191 88.0015C49.5198 88.0882 49.6278 88.1659 49.7422 88.2338C50.2748 88.5291 50.836 88.7714 51.4179 88.9575C52.0167 89.1607 52.6344 89.3371 53.2541 89.4915C53.5628 89.5742 53.8745 89.6272 54.1966 89.7144L55.1532 89.9597L57.0657 90.4509C58.344 90.7851 59.61 91.0898 60.8983 91.4489C61.5025 91.6381 62.1169 91.7958 62.7391 91.9214C63.0238 91.9767 63.3136 92.0058 63.6052 92.0084C63.8558 92.0114 64.1061 91.9623 64.3405 91.8642C64.3924 91.8439 64.4431 91.8203 64.4923 91.7937C64.5054 91.7872 64.5003 91.7894 64.5023 91.7881L64.5032 91.7849L64.464 91.7348C64.3833 91.6425 64.2942 91.558 64.1979 91.4823C63.7294 91.1285 63.2104 90.8468 62.6568 90.6459C62.4073 90.5516 62.0709 90.4775 61.7583 90.3886L60.8119 90.1349L58.9195 89.6264L53.7935 88.2496L52.7317 87.868L51.7401 87.4943C51.5709 87.4305 51.3845 87.351 51.2412 87.3035C51.0917 87.2419 50.9378 87.1913 50.7804 87.1521L50.0872 87.004C49.9368 86.9654 49.7902 86.914 49.6491 86.8503C49.4455 86.7577 49.4072 86.682 49.4783 86.6315C49.6344 86.5592 49.803 86.5215 49.9726 86.521C50.2881 86.4797 50.6052 86.4566 50.9221 86.4519C50.9026 86.447 50.9453 86.4439 51.0374 86.4435C51.1282 86.4525 51.2677 86.4708 51.4399 86.4957C51.6226 86.5191 51.7972 86.5555 51.9934 86.5933L52.6125 86.7154L54.3246 87.0596L59.6643 88.4929L61.5358 88.9956L62.4711 89.2466C62.6249 89.2886 62.781 89.3244 62.9622 89.386C63.1434 89.4476 63.3003 89.5071 63.4614 89.5757C63.7825 89.7122 64.0936 89.87 64.3929 90.0482C64.7134 90.233 65.0106 90.4552 65.2785 90.7103C65.3563 90.7849 65.4284 90.8653 65.4943 90.9507L65.5469 91.0214C65.5661 91.0481 65.59 91.0863 65.6101 91.1195C65.6531 91.1872 65.69 91.2588 65.7203 91.3334C65.7845 91.4765 65.8174 91.6327 65.8168 91.7917C65.8162 91.9507 65.7822 92.1089 65.7169 92.2558C65.6505 92.403 65.5548 92.5356 65.4361 92.6452C65.3786 92.7032 65.3157 92.7554 65.2483 92.801C65.1883 92.8446 65.1255 92.8839 65.0603 92.9187C64.8752 93.0171 64.6811 93.0963 64.4812 93.155C64.0934 93.2674 63.6911 93.3094 63.2933 93.2793C62.9392 93.2552 62.5881 93.2055 62.2428 93.1305C61.5721 92.9925 60.9397 92.7964 60.3308 92.6211L56.6118 91.6597L54.7467 91.181L53.8145 90.9412L52.8558 90.716C52.2152 90.5551 51.5825 90.3739 50.9533 90.1578C50.2987 89.9467 49.6683 89.6709 49.0709 89.3345C48.8872 89.2252 48.7142 89.099 48.5541 88.9575C48.3861 88.8052 48.2392 88.6307 48.1173 88.4386C48.0829 88.386 48.0517 88.3313 48.0238 88.2748C47.9878 88.2078 47.9579 88.1374 47.9347 88.0645C47.9016 87.9854 47.8782 87.9023 47.865 87.817C47.8189 87.6124 47.8315 87.3969 47.9012 87.1953C47.9709 86.9937 48.0949 86.8141 48.259 86.6771L48.253 86.6745Z" fill="#7E76F9"/>
</g>
</svg>
