<svg width="80" height="47" viewBox="0 0 80 47" fill="none" xmlns="http://www.w3.org/2000/svg">
<path opacity="0.2" d="M12.8234 20.3157C12.8234 20.2721 12.8161 20.2286 12.8161 20.1859C12.8139 18.4653 13.2948 16.7758 14.2085 15.294C15.1223 13.8123 16.4352 12.5927 18.01 11.7631C19.5849 10.9335 21.3637 10.5243 23.1603 10.5782C24.957 10.6321 26.7055 11.1473 28.2229 12.0697C30.1419 8.28449 33.3454 5.23417 37.3098 3.41714C41.2742 1.60012 45.7652 1.1238 50.049 2.06602C54.3329 3.00824 58.1562 5.31327 60.8943 8.60451C63.6325 11.8958 65.1235 15.9786 65.1238 20.1859V20.2138C68.5244 20.3578 71.7311 21.7701 74.0575 24.1486C76.384 26.5271 77.6454 29.6828 77.5718 32.9402C77.4982 36.1977 76.0955 39.2982 73.6639 41.5783C71.2322 43.8583 67.9648 45.1367 64.5609 45.1399H14.6024C11.3 45.1424 8.11983 43.9444 5.70507 41.7881C3.29032 39.6318 1.82121 36.6781 1.59487 33.5245C1.36852 30.3709 2.40184 27.2527 4.48583 24.8006C6.56982 22.3484 9.54894 20.7454 12.8207 20.3157H12.8234Z" stroke="#0D00D8" stroke-width="3" stroke-linejoin="round"/>
</svg>
