<svg width="133" height="113" viewBox="0 0 133 113" fill="none" xmlns="http://www.w3.org/2000/svg">
<g opacity="0.2">
<path d="M122.047 55.8961C122.13 55.9724 122.18 56.076 122.186 56.186C122.229 56.3496 122.26 56.516 122.277 56.684C122.286 56.771 122.287 56.8511 122.29 56.9512C122.293 57.052 122.29 57.1529 122.279 57.2533C122.269 57.3471 122.251 57.44 122.225 57.531C122.202 57.6322 122.172 57.7317 122.134 57.8288C122.067 57.9958 121.944 58.1371 121.785 58.231C121.627 58.2987 121.458 58.3413 121.285 58.3572C121.108 58.3755 120.91 58.3468 120.705 58.3712C120.499 58.3955 120.336 58.4721 120.094 58.4843C119.851 58.5283 119.605 58.5482 119.358 58.5435C119.259 58.5365 119.162 58.5125 119.071 58.473C118.782 58.1648 118.411 57.8261 118.026 57.4936C117.642 57.161 117.233 56.825 116.822 56.4899C115.994 55.816 115.135 55.1509 114.253 54.4197L113.693 53.9417L113.147 53.4394L112.165 52.5253L110.189 50.7111C108.866 49.5184 107.531 48.3605 106.157 47.2662C104.795 46.1758 103.371 45.1586 101.891 44.2192C100.442 43.2746 98.922 42.434 97.3434 41.7042C96.8186 41.4648 96.2967 41.2211 95.7573 41.0304C95.2299 40.8135 94.691 40.6229 94.143 40.4593L93.2671 40.1111L92.273 39.7898L91.6709 39.5922C91.459 39.533 91.2361 39.4851 91.0051 39.4268C89.9921 39.1671 88.9622 38.9723 87.9221 38.8435C86.8423 38.7186 85.7539 38.6738 84.6669 38.7095C83.7647 38.7399 82.9871 38.7486 82.3586 38.7216C81.8619 38.7052 81.3682 38.6402 80.8852 38.5275C80.1831 38.3465 80.0213 38.1436 80.2113 37.959C80.3652 37.8327 80.5435 37.7366 80.7361 37.6761C80.8607 37.63 81.0007 37.5838 81.1562 37.5385C81.3118 37.4933 81.4847 37.428 81.6693 37.3723C82.4069 37.1599 83.3618 36.8621 84.4805 36.5887C84.9707 36.4222 85.479 36.3089 85.9957 36.251C86.6123 36.1478 87.2349 36.0815 87.8601 36.0525L88.3959 36.0264H88.9297L90.0211 36.036C90.7597 36.0482 91.5044 36.1578 92.2084 36.2162C92.9023 36.318 93.5472 36.4442 94.1065 36.5409C94.6586 36.6558 95.1069 36.7847 95.4298 36.8613L95.9329 36.9892C97.001 37.3555 98.048 37.7757 99.0697 38.248C100.816 39.0537 102.498 39.9813 104.103 41.0234C105.7 42.0362 107.238 43.1321 108.709 44.3063C110.176 45.4703 111.573 46.6856 112.937 47.9139L114.956 49.7656L115.956 50.6971L116.411 51.1132L116.884 51.5163C117.681 52.1762 118.547 52.8483 119.412 53.55C119.845 53.9034 120.281 54.2569 120.719 54.6399C121.184 55.0369 121.627 55.4561 122.047 55.8961Z" fill="#0D00D8"/>
<path d="M47.9518 74.8388C47.9402 74.7971 47.9388 74.7535 47.9476 74.7112C47.9564 74.669 47.9752 74.6292 48.0027 74.595C48.2377 74.0589 48.6309 73.6 49.1341 73.2744C49.708 72.9462 50.5183 72.8321 51.6606 73.7688C51.7512 73.8532 51.8274 73.9508 51.8862 74.0579C52.3537 76.3327 52.5156 78.4212 52.9385 80.353L53.0649 80.9362L53.214 81.4681C53.3129 81.8417 53.4422 82.2073 53.6006 82.5616C53.7425 82.9307 53.8953 83.3015 54.0745 83.675C54.2536 84.0485 54.4046 84.4254 54.601 84.785C55.329 86.251 56.1935 87.6514 57.1841 88.9689C58.2158 90.2962 59.3224 91.5685 60.4991 92.7802C61.6723 94.0043 62.923 95.1839 64.2281 96.3078C65.1167 97.0808 66.0334 97.826 66.9638 98.5547C66.9638 98.5547 68.0443 99.5306 69.5595 100.804C71.0747 102.078 73.0547 103.606 74.7546 104.803L76.5935 106.022C77.0856 106.363 77.4703 106.613 77.7432 106.825C78.2889 107.253 78.3907 107.497 78.1442 107.609C77.5911 107.704 77.0224 107.674 76.4835 107.522C76.0806 107.434 75.6231 107.309 75.1256 107.165C74.6399 107.004 74.1161 106.816 73.5713 106.608C71.9118 105.951 70.3143 105.159 68.7964 104.24C67.5832 103.538 66.379 102.791 65.4968 102.199C64.6145 101.607 64.0262 101.199 64.0262 101.199C63.1794 100.538 62.3545 99.851 61.5424 99.1484C60.1575 97.9558 58.8269 96.6981 57.5506 95.3754C56.2626 94.0497 55.0523 92.6567 53.9254 91.2028C52.7997 89.707 51.8168 88.1173 50.9886 86.453C50.7658 86.0447 50.5865 85.6181 50.391 85.1985C50.1954 84.7789 50.0136 84.3497 49.8453 83.9074C49.6515 83.4635 49.4908 83.0071 49.3642 82.5415L49.1614 81.819L49.0113 81.1303C48.5265 78.8982 48.3502 76.7331 47.9518 74.8388Z" fill="#0D00D8"/>
<path d="M79.8288 105.772C79.868 105.884 79.8634 106.005 79.8161 106.113C79.7357 106.469 79.5841 106.806 79.3695 107.106C79.2705 107.257 79.1398 107.386 78.986 107.486C78.8321 107.586 78.6583 107.654 78.4755 107.686C78.1074 107.694 77.7438 107.607 77.4232 107.434C77.0594 107.279 76.6401 107.144 76.1499 106.924C76.0703 106.884 75.9996 106.829 75.9416 106.763C75.8108 106.328 75.6526 105.901 75.4678 105.484C75.2695 105.012 75.0459 104.515 74.8249 103.929C74.7694 103.779 74.7157 103.624 74.6611 103.453C74.6079 103.29 74.5651 103.123 74.5329 102.954L74.3673 102.113C74.2655 101.553 74.1299 100.986 74.0599 100.432L73.8152 98.3614L73.6716 96.3182C73.5942 94.9723 73.5561 93.7064 73.4897 92.3013L73.4451 91.2723L73.4615 90.2364C73.4842 89.5486 73.4688 88.8487 73.5316 88.1723L73.6024 87.1502C73.6178 86.9491 73.6634 86.1116 73.7498 85.517L74.2291 81.7248L74.2591 81.488L74.2745 81.3696L74.2818 81.3104C74.2937 81.3061 74.3182 81.3235 74.3355 81.3287L74.7902 81.5255L75.7043 81.9198L77.4978 82.7033C78.0926 82.9575 78.6984 83.3075 79.2977 83.6044L80.3372 84.1546L81.1949 84.5898C81.4777 84.7317 81.7497 84.8423 82.0271 84.9712L82.8392 85.2794C82.8438 85.2794 82.8393 85.2793 82.8502 85.2715L83.0212 85.1174C83.1567 84.9964 83.294 84.8728 83.4304 84.764C83.9825 84.3208 84.5345 83.8516 85.0884 83.4407L88.3326 80.9814C88.7991 80.6192 89.2357 80.251 89.6886 79.8871C90.1115 79.5101 90.5354 79.1358 90.9456 78.7553L91.634 78.1459C92.0888 77.7977 92.6418 77.1508 93.3276 76.4735C93.6623 76.1253 94.0442 75.7702 94.4016 75.3723C94.759 74.9745 95.1111 74.5444 95.474 74.1222C95.8369 73.6999 96.2333 73.2908 96.5653 72.8477L97.5739 71.5862L98.3216 70.639C98.5405 70.3454 98.7429 70.0825 98.9291 69.8503C99.217 69.4815 99.5278 69.1294 99.8596 68.796C100.361 68.312 100.624 68.2467 100.712 68.4931C100.758 69.0208 100.679 69.5518 100.481 70.0462C100.206 70.9729 99.8562 71.8779 99.4348 72.7528C99.2684 73.2144 99.0603 73.6612 98.8127 74.0882C98.368 74.9588 97.6304 76.1184 96.9274 77.3093L95.7231 78.9825L95.1601 79.7582L94.8982 80.1186L94.6172 80.4451L93.7368 81.4602L93.3839 81.8223C92.5653 82.585 91.7131 83.2805 90.8628 83.95L87.6032 86.4233C87.0638 86.8237 86.5837 87.2355 86.0753 87.6421C85.9461 87.7422 85.8324 87.8493 85.7115 87.9546L85.1248 88.4769L84.3726 89.1438L83.9925 89.4772C83.9588 89.4981 83.9334 89.5478 83.8934 89.5443L83.7697 89.5112L83.5204 89.445C82.8701 89.2657 82.1626 89.0968 81.5596 88.9087L80.962 88.6911C80.7801 88.6197 80.581 88.5579 80.4109 88.4752C80.0653 88.3176 79.7015 88.1653 79.3713 88.0007L78.3991 87.5037L77.6215 87.0875L77.5306 88.3733C77.4705 89.0158 77.4878 89.6426 77.4668 90.2764L77.4505 91.2262L77.4933 92.1838C77.5533 93.4261 77.5978 94.8042 77.6751 96.1014L77.8107 98.0166L78.0335 99.8927C78.0953 100.392 78.2153 100.862 78.3008 101.35L78.441 102.074C78.4558 102.168 78.478 102.259 78.5073 102.349L78.6046 102.631C78.7601 103.045 78.9739 103.526 79.1904 104.037C79.4403 104.603 79.6536 105.182 79.8288 105.772Z" fill="#0D00D8"/>
<path d="M81.2431 36.2912C81.2761 36.325 81.3014 36.3651 81.3171 36.4089C81.3328 36.4528 81.3386 36.4993 81.3341 36.5454C81.4742 37.5587 81.1394 39.3591 78.4646 38.8672C78.3499 38.8414 78.2406 38.7976 78.1409 38.7375C76.7575 37.1095 75.3133 35.5373 73.859 33.9755C67.811 27.4296 60.7769 21.7837 52.9888 17.2241C49.0896 14.9954 44.995 13.0959 40.7515 11.5472C36.5385 9.97162 32.1802 8.77862 27.7339 7.98397L26.0714 7.75151C25.5157 7.68273 24.9673 7.5774 24.4025 7.54954L21.0374 7.30757L17.7041 7.24311C17.4503 7.2318 17.0838 7.24749 16.7609 7.25098C16.4226 7.26491 16.1152 7.23791 15.795 7.22659C15.1484 7.20744 14.559 7.13955 13.9424 7.08992C12.7364 6.96108 11.5477 6.8148 10.3444 6.61022C9.73595 6.5014 9.13667 6.40301 8.48911 6.23674C8.10855 6.15055 7.73618 6.03411 7.37589 5.88854C7.19399 5.81716 7.05028 5.74748 6.88839 5.67696L6.46184 5.47414L5.65693 5.08498H5.64961C5.64324 5.08498 5.63784 5.08932 5.64239 5.09455C5.7388 5.20424 5.26496 4.69235 6.53734 6.01038C6.82894 6.32095 7.08554 6.66006 7.30306 7.02202L7.41408 7.23876L7.47226 7.3615L7.56318 7.5539L7.73693 7.93695C7.79332 8.05273 7.85421 8.21205 7.91879 8.37223L8.10075 8.84673C8.23081 9.17406 8.29898 9.44651 8.39629 9.74598C9.00147 11.9856 9.45535 14.2601 9.75509 16.5555C9.9279 17.6507 10.0998 18.7319 10.3153 19.767C10.5176 20.7875 10.788 21.7944 11.1248 22.7818C11.8524 24.8825 12.5281 27.0084 13.3285 29.0629C14.1597 31.4082 15.1529 33.6769 16.1051 35.9639L17.6932 39.2894L18.0888 40.1217L18.5435 40.9191L19.463 42.5114C21.9891 46.7595 24.9325 50.7674 28.2533 54.4807C29.0855 55.4079 29.9595 56.3002 30.8099 57.2126C31.6948 58.0936 32.6016 58.9537 33.4956 59.8295L36.184 62.221C36.8853 62.7581 37.5483 63.3179 38.2759 63.8358L39.0217 64.4583C39.4764 64.8596 40.1685 65.3811 40.9407 66.007C42.5105 67.2363 44.5578 68.7658 46.2112 70.1091C47.2052 70.8386 48.1265 71.6546 48.9634 72.5467C49.4181 73.069 49.4472 73.3302 49.1807 73.3842C48.6432 73.4921 46.9298 72.7896 44.9062 71.8363C45.0826 71.9861 42.7033 70.7916 40.2677 69.4623C39.0508 68.805 37.8321 68.085 36.9226 67.527L35.411 66.5694C34.6916 65.9966 33.9303 65.4438 33.2509 64.8466L32.1451 63.8646L30.7362 62.6127L29.3901 61.3068L28.0459 60.001L26.7608 58.6421L25.4775 57.2814L24.256 55.8685C20.9941 52.0957 18.0996 48.0452 15.6086 43.7676L14.6773 42.1501C14.368 41.6112 14.1315 41.041 13.8587 40.4882C13.333 39.3721 12.7792 38.2622 12.279 37.1409C11.3367 34.887 10.369 32.641 9.55048 30.3505C8.72648 28.2281 8.04246 26.0917 7.3085 23.9614C6.92374 22.8294 6.6136 21.6754 6.37991 20.5061C6.14162 19.3596 5.96345 18.234 5.78883 17.1266C5.51272 15.0001 5.09685 12.8924 4.54371 10.8159C4.46823 10.5843 4.39817 10.3136 4.31723 10.1195L4.20265 9.80693C4.16389 9.69042 4.11803 9.57617 4.06532 9.46479L3.89157 9.08174L3.80064 8.89024L3.77877 8.84237C3.63871 8.89199 5.05209 8.26864 4.39816 8.55331L4.29636 8.59423C4.16134 8.65063 4.03061 8.71612 3.90522 8.79014L3.78332 8.85018V8.84497C3.77994 8.83737 3.77532 8.83033 3.76967 8.82409C3.7533 8.8032 3.74059 8.78139 3.71149 8.74657C3.66511 8.68737 3.59689 8.60815 3.52231 8.52632C3.37224 8.36179 3.19032 8.1781 2.99751 7.98658L2.61648 7.60964L2.01896 7.00023C1.63802 6.61208 1.29032 6.19518 0.979346 5.75358C0.720659 5.37705 0.526113 4.96363 0.402808 4.52871C0.297957 4.15508 0.274954 3.76469 0.335417 3.38217C0.400275 2.96877 0.565706 2.57575 0.818364 2.23477C0.945142 2.06536 1.08958 1.90873 1.24946 1.76729C1.42441 1.63212 1.60664 1.50572 1.79525 1.3886C2.16794 1.15932 2.57359 0.98332 2.99939 0.866226C3.97608 0.642714 5.00024 0.70335 5.94071 1.04035C6.21122 1.12503 6.47711 1.22266 6.7374 1.33286C6.8711 1.38335 7.00298 1.43994 7.13486 1.49827L7.48591 1.66107L8.28261 2.04758L8.63821 2.21649L8.94474 2.3497C9.12077 2.42038 9.30349 2.47459 9.49042 2.5116C9.96608 2.63783 10.5154 2.72925 11.0493 2.82414C12.1407 3.01044 13.2593 3.14712 14.3653 3.26639C14.911 3.30817 15.4758 3.37347 15.9933 3.38652C16.2543 3.39523 16.5272 3.42048 16.7709 3.40656C17.0292 3.40133 17.2438 3.39177 17.5731 3.40135L21.221 3.46575C22.4234 3.538 23.6185 3.63985 24.8181 3.72691C25.4175 3.75389 26.0141 3.8688 26.6116 3.94279L28.4043 4.19354L29.3001 4.32149L30.1868 4.51128L31.9604 4.89173C33.1591 5.11982 34.2833 5.46455 35.4283 5.77622C35.9995 5.9364 36.5724 6.0879 37.1408 6.25592L38.8335 6.80177L40.526 7.34758C41.0872 7.53736 41.6392 7.75501 42.1958 7.95698C46.6558 9.58487 50.9591 11.5816 55.0569 13.9247C63.1852 18.6769 70.5274 24.5631 76.8411 31.3891C78.3345 33.0005 79.8233 34.6223 81.2431 36.2912Z" fill="#0D00D8"/>
<path d="M121.397 55.9102C121.448 55.917 121.496 55.9335 121.54 55.9588C121.583 55.9841 121.621 56.0176 121.65 56.0574C121.757 56.1535 121.858 56.2564 121.95 56.3656L122.022 56.4526L123.106 57.3363V57.3424L123.111 57.3667L123.119 57.4164L123.133 57.5139C123.139 57.5792 123.144 57.6445 123.144 57.7072L123.137 57.9213C123.132 58.0626 123.109 58.2027 123.067 58.3383C123.047 58.4037 123.022 58.4676 122.993 58.5298C122.963 58.5972 122.926 58.6619 122.883 58.7231C122.783 58.8683 122.657 58.9958 122.511 59.1001C122.451 59.145 122.385 59.1829 122.315 59.2133C122.27 59.2298 122.224 59.2446 122.179 59.2576C122.09 59.2826 121.999 59.2998 121.907 59.309C121.85 59.3179 121.792 59.3141 121.737 59.2977L121.616 59.2655C121.555 59.2518 121.501 59.2215 121.458 59.1784C121.421 59.1493 121.388 59.1157 121.36 59.0783C121.287 58.9401 121.238 58.7913 121.216 58.6378C121.161 58.4804 121.132 58.3156 121.13 58.1494C121.118 57.9587 121.167 57.7689 121.27 57.6053C121.326 57.5157 121.371 57.4205 121.405 57.3215L121.421 57.2501C121.421 57.2005 121.431 57.365 121.427 57.3371V57.3754V57.4538C121.428 57.5074 121.432 57.5608 121.439 57.614C121.446 57.6688 121.456 57.7237 121.469 57.7803L121.491 57.8621V57.8978C121.499 57.9496 121.521 57.9984 121.556 58.0389C121.556 58.0441 121.556 58.0571 121.572 58.0615C121.554 58.0507 121.534 58.044 121.514 58.0419C121.493 58.0398 121.472 58.0423 121.453 58.0493C121.36 58.0563 121.269 58.0724 121.18 58.0972C121.131 58.1126 121.083 58.1324 121.038 58.1564L121.004 58.1755L120.988 58.1851H120.983C121.608 60.4434 121.156 58.812 121.295 59.3169L121.273 59.3317C121.151 59.4112 121.018 59.4892 120.872 59.5658C120.771 59.6144 120.663 59.6468 120.551 59.6616C118.529 59.248 116.464 59.0627 114.397 59.1097H113.902C112.738 59.1401 111.564 59.2533 110.388 59.3857L109.402 59.4492C108.785 59.4814 107.911 59.5606 106.9 59.6477C104.878 59.8279 102.284 60.1231 100.108 60.2354C98.8593 60.3668 97.6 60.3744 96.3499 60.258C95.6432 60.1622 95.4403 59.9898 95.6004 59.7791C95.9232 59.3534 97.6731 58.7762 99.815 58.125C99.5803 58.1372 102.15 57.4355 104.842 56.7382C106.191 56.3969 107.576 56.0713 108.637 55.8598L109.927 55.6099L110.424 55.528C111.524 55.4027 112.639 55.3156 113.763 55.2808L114.32 55.2669C116.698 55.2167 119.073 55.4326 121.397 55.9102Z" fill="#0D00D8"/>
<path d="M94.8582 61.7525C94.85 61.7403 94.8463 61.736 94.9109 61.6655C95.6994 60.715 96.6996 59.9449 97.8386 59.4115C97.8911 59.388 97.9468 59.3716 98.0041 59.3628L98.2215 59.6361C98.3452 59.8015 98.5489 60.0305 98.7372 60.3108C98.9255 60.5912 99.1637 60.9133 99.3929 61.2606L100.074 62.3506C100.516 63.094 100.925 63.8366 101.224 64.3938C101.522 64.9509 101.708 65.3183 101.708 65.3183C101.776 66.0033 101.746 66.6941 101.617 67.3711C101.413 68.8511 100.386 68.7718 99.6057 68.273C99.5839 68.327 99.2037 67.9875 98.829 67.6427L98.0842 66.9463C98.0842 66.9463 97.372 65.5394 96.5798 64.2327C96.3779 63.9115 96.1761 63.5902 95.9851 63.2881L95.4393 62.5047C95.1064 62.0476 94.8682 61.7734 94.8582 61.7525Z" fill="#0D00D8"/>
<path d="M31.4119 24.5561C31.3637 24.5971 31.3419 24.6005 31.2173 24.5997C30.6415 24.6369 30.0634 24.5695 29.5138 24.4012C29.1662 24.279 28.8747 24.0436 28.6906 23.7361C28.4222 23.2301 28.3609 22.6464 28.5188 22.0994C28.5534 21.9587 28.6178 21.8263 28.708 21.7103C29.8437 20.7113 31.2836 20.0865 32.817 19.9274C34.2718 19.7885 35.7395 20.0112 37.078 20.5742C38.5791 21.1975 39.9007 22.1586 40.9306 23.3757C42.0122 24.639 42.6802 26.1799 42.8506 27.8051C42.889 28.2232 42.8914 28.6436 42.8578 29.0621L42.7797 29.6715L42.665 30.2165C42.5962 30.5871 42.498 30.952 42.3712 31.3082C42.2567 31.6848 42.1092 32.0515 41.9301 32.4043C41.2177 33.9528 39.9633 35.2151 38.3831 35.9735C37.638 36.325 36.8402 36.5632 36.0184 36.6795C35.2342 36.781 34.4397 36.7875 33.6538 36.6987C33.2357 36.6351 32.8232 36.5417 32.4197 36.4193C31.4273 36.1202 30.4875 35.68 29.632 35.1134C28.4987 34.3681 27.5641 33.3784 26.9035 32.224C26.2265 31.0057 26.0349 29.5934 26.3642 28.2499C26.5851 27.435 26.9973 26.6791 27.5693 26.0396C27.9018 25.6645 28.2933 25.3415 28.7298 25.082C29.3601 24.7216 29.6229 24.759 29.6257 25.0175C29.6131 25.2099 29.5611 25.398 29.4728 25.5712C29.4228 25.687 29.3601 25.8132 29.2909 25.9482C29.2218 26.0831 29.1654 26.2407 29.0963 26.4026C28.743 27.1014 28.5604 27.868 28.5624 28.6443C28.6061 28.5624 28.5579 29.0082 28.7726 29.6402L28.8635 29.8866C28.9017 29.9736 28.9545 30.0546 29 30.1425C29.0993 30.3302 29.215 30.5095 29.3456 30.6788C29.6564 31.0666 30.0239 31.4097 30.4369 31.6974C31.2542 32.262 32.1908 32.6483 33.1808 32.8291C33.4987 32.8858 33.8208 32.9182 34.144 32.9257C34.263 32.935 34.3825 32.935 34.5014 32.9257C35.2262 32.9686 35.9506 32.8363 36.6079 32.5409C37.3729 32.1716 37.9732 31.5507 38.2986 30.7919C38.3531 30.6922 38.4016 30.5896 38.444 30.4847L38.556 30.1477C38.6421 29.9153 38.7057 29.6758 38.746 29.4322L38.827 29.0621L38.867 28.7487C38.8821 28.5458 38.8802 28.342 38.8615 28.1393C38.7595 27.2705 38.3936 26.4495 37.8092 25.7776C37.1901 25.0526 36.3999 24.4788 35.5037 24.1034C34.8019 23.8017 34.0308 23.6779 33.2645 23.7439C32.5703 23.8118 31.919 24.0973 31.4119 24.5561Z" fill="#0D00D8"/>
<path d="M108.111 76.0064C108.044 76.0151 108.02 76.0142 107.918 75.9498C107.414 75.6898 106.961 75.3482 106.579 74.94C106.34 74.6696 106.209 74.3264 106.21 73.9719C106.25 73.4005 106.517 72.8654 106.955 72.4754C107.06 72.3731 107.185 72.2912 107.323 72.2342C108.698 71.9942 110.11 72.0349 111.467 72.3535C112.702 72.6379 113.899 73.0604 115.031 73.6123C117.268 74.7149 119.328 76.1173 121.151 77.7771C121.604 78.1834 122.044 78.6019 122.47 79.0325C122.839 79.3938 123.22 79.8448 123.594 80.2513C123.99 80.6631 124.283 81.0861 124.633 81.5023C124.809 81.7129 124.959 81.9184 125.098 82.1221L125.53 82.7359C125.825 83.1468 126.027 83.5194 126.28 83.9181C126.51 84.3029 126.673 84.6555 126.873 85.0263C127.035 85.3746 127.178 85.7123 127.327 86.0545L128.895 89.7823L129.35 90.8618L129.875 92.1119L130.101 92.6525C130.101 92.6525 130.121 92.6865 130.101 92.6751L130.038 92.6273L129.911 92.5315L129.658 92.3408L129.15 91.9587L127.121 90.4291L126.106 89.6647L125.853 89.4741C125.762 89.4079 125.678 89.3417 125.636 89.3147L125.306 89.0884L123.988 88.183L122.67 87.2785L122.011 86.8258L121.681 86.5995C121.562 86.5034 121.427 86.4275 121.282 86.3749L119.504 85.668L119.538 85.6758H119.529V85.681C119.529 85.6854 119.525 85.674 119.519 85.668L119.959 86.2216C121.208 87.7338 122.314 89.3487 123.458 90.9366C125.657 94.1956 127.577 97.6193 129.2 101.174L130.291 103.922L130.427 104.266L130.495 104.44L130.529 104.527L130.575 104.683L130.954 105.967L131.713 108.534L132.092 109.817L132.281 110.46L132.372 110.78L132.009 110.73L129.119 110.307L126.472 109.893L125.812 109.79L125.432 109.721L124.693 109.585C120.726 108.869 116.823 107.86 113.019 106.565C111.094 105.909 109.211 105.145 107.38 104.275C106.916 104.066 106.461 103.835 106.01 103.592L105.841 103.505L105.805 103.487L105.791 103.478C105.777 103.464 105.784 103.478 105.791 103.487V103.495L105.811 103.562L106.709 106.609L106.934 107.371C107.016 107.639 107.051 107.817 107.116 108.044L107.445 109.338L108.104 111.924C108.129 112.028 108.165 112.147 108.181 112.239L107.876 112.071L107.269 111.736L106.052 111.064L103.659 109.738L102.476 109.08C102.083 108.863 101.674 108.583 101.274 108.337L100.068 107.576L99.4695 107.196L99.1385 106.956C98.7265 106.649 98.3009 106.365 97.8998 106.037C97.0768 105.395 96.2929 104.709 95.5523 103.981C93.9897 102.471 92.7302 100.698 91.8362 98.7525C90.9513 96.7004 90.6379 94.4636 90.9267 92.2607C90.9631 92.0065 90.9922 91.7497 91.0367 91.4981L91.2049 90.7538C91.3032 90.2506 91.4852 89.784 91.6316 89.3008C91.7926 88.8263 91.9954 88.3745 92.1773 87.9079L92.6648 86.912C92.8512 86.5263 93.0776 86.1711 93.284 85.8003C93.4905 85.4294 93.7306 85.0873 93.9553 84.7321C94.1799 84.3769 94.4237 84.0356 94.671 83.7031C95.4542 82.7526 96.3028 81.8534 97.2112 81.0113C98.8818 79.442 100.693 78.0164 102.625 76.7508C103.626 76.0233 104.706 75.3994 105.845 74.8895C106.503 74.6283 106.769 74.6718 106.746 74.9313C106.703 75.4536 105.489 76.8169 104.017 78.4135C104.226 78.3004 102.351 80.1146 100.7 82.1169C99.8652 83.1102 99.0848 84.1436 98.5464 84.9376C98.2626 85.3276 98.0644 85.6697 97.9098 85.9039L97.6761 86.2721C97.3223 86.8066 96.9484 87.3359 96.6519 87.8879L96.4164 88.2979C96.3782 88.3658 96.3354 88.4337 96.3045 88.5043L96.1535 88.8124C95.5162 90.0414 95.0918 91.3612 94.8966 92.7204C94.6905 94.2684 94.9099 95.8411 95.5332 97.283C96.2368 98.7838 97.2189 100.15 98.4318 101.316C99.0634 101.934 99.7314 102.518 100.433 103.064C100.777 103.349 101.16 103.602 101.524 103.874L101.784 104.064L101.983 104.666L101.783 104.057C101.706 103.826 101.601 103.604 101.516 103.377C101.43 103.15 101.314 102.911 101.201 102.669L100.861 101.941L99.5023 99.032L98.8229 97.5773L98.1326 96.1713L96.7519 93.3664L96.0654 91.9734L95.9044 91.6444L96.2445 91.9055L96.9248 92.4279L99.7533 94.5939L101.283 95.7647L102.048 96.3507L102.43 96.6432C102.56 96.7442 102.686 96.839 102.794 96.9113L105.518 98.797C105.743 98.951 105.972 99.1191 106.195 99.261L106.838 99.6414C107.052 99.7728 107.27 99.873 107.486 99.9896L107.929 100.222C108.334 100.441 108.747 100.65 109.173 100.841C110.865 101.645 112.605 102.352 114.385 102.958C117.994 104.184 121.696 105.141 125.459 105.819L126.574 106.023L126.815 106.062L126.782 105.95L126.744 105.822L126.724 105.759L126.501 105.194L125.5 102.664C123.97 99.3216 122.163 96.1021 120.095 93.0364C119.004 91.5286 117.957 89.9894 116.764 88.5521L116.31 87.9819C116.005 87.6006 115.712 87.2123 115.38 86.8502C115.227 86.67 115.036 86.468 114.916 86.3052L114.558 85.8194L113.843 84.847L112.414 82.903L111.699 81.9306L111.517 81.6877L111.426 81.5658L111.381 81.5049C111.368 81.4858 111.336 81.4579 111.381 81.4657L112.031 81.4474L115.005 81.3674L115.715 81.3473C115.959 81.3315 116.204 81.3347 116.448 81.3569L118.016 81.4962C118.279 81.5232 118.534 81.5345 118.804 81.5737C119.073 81.6129 119.349 81.6607 119.628 81.7217L120.499 81.9567L120.608 81.9863L120.663 82.0011L120.601 81.9846L120.285 81.8975L119.654 81.7234L119.557 81.6973L118.392 80.5882C116.857 79.1823 115.123 77.9915 113.239 77.0511C111.688 76.1928 109.893 75.8271 108.111 76.0064Z" fill="#0D00D8"/>
</g>
</svg>
