<svg width="50" height="47" viewBox="0 0 50 47" fill="none" xmlns="http://www.w3.org/2000/svg">
<g opacity="0.2">
<path d="M41.1449 10.9067C41.1448 11.4144 40.9906 11.9108 40.7018 12.3329C40.413 12.755 40.0026 13.0839 39.5225 13.2781C39.0424 13.4723 38.5142 13.523 38.0046 13.4238C37.495 13.3246 37.027 13.08 36.6597 12.7209C36.2923 12.3618 36.0422 11.9043 35.941 11.4063C35.8397 10.9083 35.8919 10.3921 36.0909 9.92309C36.2898 9.45404 36.6266 9.05316 37.0587 8.77117C37.4908 8.48919 37.9988 8.33874 38.5184 8.33887C38.8634 8.33887 39.2051 8.40532 39.5238 8.53438C39.8425 8.66344 40.1321 8.85261 40.3761 9.09107C40.62 9.32953 40.8134 9.61261 40.9453 9.92415C41.0772 10.2357 41.1451 10.5696 41.1449 10.9067V10.9067Z" stroke="#0D00D8"/>
<path d="M36.4475 26.4713C37.8943 20.5266 34.1356 14.5614 28.0522 13.1476C21.9688 11.7338 15.8643 15.4068 14.4175 21.3514C12.9707 27.2961 16.7294 33.2614 22.8129 34.6752C28.8963 36.089 35.0007 32.416 36.4475 26.4713Z" stroke="#0D00D8" stroke-width="3" stroke-linecap="round" stroke-linejoin="round"/>
<path d="M35.6655 2.33691H15.2C8.11561 2.33691 2.37256 7.949 2.37256 14.8719V32.8202C2.37256 39.743 8.11561 45.3551 15.2 45.3551H35.6655C42.7499 45.3551 48.4929 39.743 48.4929 32.8202V14.8719C48.4929 7.949 42.7499 2.33691 35.6655 2.33691Z" stroke="#0D00D8" stroke-width="3" stroke-linecap="round" stroke-linejoin="round"/>
</g>
</svg>
