<svg width="41" height="33" viewBox="0 0 41 33" fill="none" xmlns="http://www.w3.org/2000/svg">
<path d="M36.2987 6.25581C35.8323 6.38241 35.3489 6.44259 34.8642 6.43442L34.8906 6.28847C35.6365 5.71649 37.5201 3.96297 37.7693 3.13964C37.8773 2.78488 37.7496 2.66268 37.7486 2.65081L35.3434 3.62849L33.3301 4.49783C32.5697 3.7551 31.6597 3.16787 30.6552 2.77171C29.6507 2.37555 28.5727 2.17871 27.4864 2.19312C23.2994 2.19312 19.909 5.03022 19.909 8.53132C19.905 9.33768 20.0092 10.1412 20.2191 10.9221C20.2191 11.1062 20.2269 10.7381 20.2191 10.9221C17.525 10.8514 14.071 9.79353 10.9954 8.29977C4.9284 5.35777 4.54848 3.32123 4.54848 3.32123C3.59529 4.28953 3.10421 7.49624 4.0698 10.0107C4.6901 11.6203 6.81409 13.0655 6.81409 13.0655C6.15265 13.0599 5.49603 12.9567 4.86738 12.7598C4.37364 12.6255 3.90902 12.4076 3.4955 12.1165C2.90364 13.498 4.09151 15.9665 6.14417 17.7368C7.34081 18.7689 9.5263 19.4166 9.5263 19.4166L6.11211 19.5086C5.91982 22.6852 13.0718 24.5723 13.0718 24.5723C11.0488 26.1365 8.53858 27.0102 5.93843 27.0551C4.61891 27.0547 3.30649 26.8704 2.04248 26.5079C5.48666 29.2238 9.91296 31.1 14.727 30.858C27.4946 30.2148 34.705 19.7085 35.0478 9.38979L35.0638 9.41056C35.7591 8.99175 36.391 8.48347 36.9417 7.89998C37.7518 7.10521 38.449 6.21188 39.0155 5.24298C39.0155 5.24298 37.103 6.04552 36.2987 6.25581Z" stroke="#0D00D8" stroke-width="3" stroke-linecap="round" stroke-linejoin="round"/>
</svg>
