<svg width="85" height="81" viewBox="0 0 85 81" fill="none" xmlns="http://www.w3.org/2000/svg">
<g opacity="0.2">
<path d="M48.4584 65.6483C48.479 65.6695 48.4943 65.6951 48.503 65.7231C48.5117 65.751 48.5136 65.7806 48.5086 65.8094C48.5187 65.9898 48.5063 66.1707 48.4719 66.3481C48.4133 66.5443 48.3411 66.7363 48.2556 66.9228C48.1645 67.15 47.9897 67.3356 47.7655 67.443C47.6046 67.5078 47.4308 67.536 47.2571 67.5257C47.0371 67.527 46.8179 67.4998 46.6053 67.4448C46.5224 67.4214 46.4438 67.3852 46.3725 67.3377C45.3568 66.1057 44.5298 64.903 43.6716 63.6765L42.371 61.7735L41.8809 61.0461C41.8773 61.0461 41.8883 61.0461 41.8718 61.0461L41.7315 61.0575L41.416 61.082C41.2052 61.0958 40.9927 61.0856 40.7807 61.088C40.3569 61.0973 39.9329 61.0829 39.5108 61.0449C38.6641 60.9845 37.8239 60.8551 36.9992 60.6582C35.3552 60.2638 33.7837 59.6231 32.3404 58.7588C30.9165 57.9052 29.6119 56.875 28.459 55.6938C26.1988 53.3463 24.4537 50.5719 23.3309 47.5411C22.1693 44.5199 21.6666 41.2948 21.8552 38.0727C21.9608 36.4356 22.2993 34.821 22.8611 33.2753C23.0197 32.8952 23.1594 32.4911 23.3371 32.1331L23.8743 31.0616C24.0581 30.7066 24.2241 30.3432 24.4256 29.996L25.0615 28.9712C26.7731 26.2108 29.0603 23.8335 31.7743 21.9942C34.5332 20.2052 37.6549 19.0197 40.9259 18.5186C41.3299 18.4478 41.7375 18.3979 42.1468 18.3689C42.5554 18.3306 42.9634 18.2869 43.372 18.2558L44.5972 18.2336C45.0056 18.217 45.4146 18.2222 45.8224 18.2492C46.6385 18.2777 47.4526 18.348 48.2611 18.4599C48.6648 18.5198 49.071 18.5611 49.4728 18.6305L50.6723 18.8789C53.9248 19.5743 56.9576 21.0261 59.5133 23.1112C62.0564 25.2018 64.0705 27.8386 65.3985 30.8155C66.728 33.7784 67.3781 36.9897 67.3031 40.2241C67.2315 43.4636 66.4174 46.6462 64.9207 49.5375C64.7259 49.9021 64.5151 50.2661 64.3112 50.6288C64.101 50.9802 63.8511 51.3011 63.6373 51.6243C63.4543 51.8786 63.294 52.1478 63.1582 52.4289C63.0856 52.5546 63.0294 52.6888 62.991 52.8282L62.9261 53.0425V53.0389V53.0425L63.0768 53.2987C63.2605 53.5926 63.4633 53.9021 63.6722 54.2134C64.0912 54.839 64.5298 55.4759 64.9587 56.1464C65.1725 56.4828 65.3875 56.827 65.5896 57.2023L65.7428 57.4921L65.8181 57.6453L65.8561 57.7249C65.8733 57.7615 65.891 57.798 65.9094 57.8446C66.0656 58.1827 66.1651 58.5431 66.2041 58.912C66.2813 59.6555 65.7373 60.2625 65.2166 60.7737C65.0283 60.9377 64.8294 61.0897 64.6211 61.2287C64.4294 61.3658 64.245 61.4682 64.0557 61.5879C63.3395 61.9953 62.6001 62.3624 61.8412 62.6875C61.1146 63.0084 60.3746 63.3047 59.7014 63.5945L57.7527 64.4924L56.5226 65.0216C56.5226 65.0216 56.2776 65.1102 55.8653 65.2449L54.2156 65.7836C52.8856 66.1985 51.2543 66.7331 49.898 67.1874C49.3405 67.4077 48.8603 67.5645 48.4811 67.7088C48.185 67.8292 47.8819 67.9322 47.5732 68.0171C47.1095 68.1368 46.9306 68.0913 46.9636 67.9153C47.0359 67.5795 47.9769 66.6798 49.2915 65.8435C50.294 65.2033 51.3375 64.6268 52.4158 64.1176L55.7667 62.4661C56.1532 62.296 56.5526 62.1362 56.9306 61.9584L57.4985 61.695L58.5044 61.2317L60.6074 60.3409C61.2624 60.0624 61.9024 59.7513 62.5248 59.4089C62.7987 59.2577 63.0613 59.0879 63.3108 58.9006L63.4008 58.827L63.3022 58.6271C63.1589 58.3481 62.9812 58.0488 62.7944 57.7483C62.4182 57.1455 62.0017 56.5349 61.5808 55.9099C61.3695 55.5962 61.1563 55.279 60.9419 54.9443C60.8347 54.7773 60.7269 54.6043 60.6172 54.4152C60.5755 54.3487 60.4708 54.1517 60.3924 53.9889C60.3121 53.8234 60.2493 53.6503 60.2049 53.4723C60.1885 53.3836 60.179 53.2937 60.1767 53.2035V53.1353C60.1767 53.1125 60.1516 53.0916 60.1645 53.0694L60.1706 52.9371C60.203 52.7541 60.2504 52.574 60.3121 52.3984L60.4254 52.0308L60.5284 51.7117C60.7089 51.2916 60.9253 50.8872 61.1753 50.5025C61.4203 50.1194 61.6145 49.8512 61.8191 49.5585C61.922 49.4191 62.0132 49.2717 62.0917 49.1179L62.3367 48.6749C62.5095 48.3888 62.6516 48.0601 62.8066 47.7488C62.9616 47.4375 63.0958 47.1125 63.2287 46.791C64.2846 44.1903 64.7446 41.395 64.5764 38.6019C64.412 35.8059 63.6326 33.0774 62.2914 30.6024C60.959 28.1348 59.0638 25.9995 56.7523 24.3617C55.6013 23.5487 54.3537 22.8747 53.0369 22.3546C52.379 22.0955 51.707 21.8718 51.0239 21.6847C50.6801 21.5862 50.3313 21.5051 49.9789 21.4417L48.9209 21.2214C46.0776 20.7371 43.1672 20.7696 40.336 21.3171C37.5275 21.8658 34.8805 23.0226 32.5897 24.7024C30.2974 26.3958 28.3875 28.5334 26.9796 30.9813C26.8883 31.1334 26.786 31.2807 26.7033 31.4357L26.4644 31.9146L25.9853 32.8682L25.7452 33.3471C25.6766 33.5052 25.6184 33.6626 25.5534 33.82L25.3635 34.2912L25.2092 34.7784C24.8013 36.0942 24.5729 37.4569 24.5298 38.8311C24.4117 44.5004 26.6029 49.9833 30.6214 54.0739C32.5623 56.0663 35.0448 57.4758 37.7772 58.1368C38.1129 58.2146 38.4559 58.2565 38.7947 58.323C39.1335 58.3894 39.4808 58.3906 39.8232 58.4289L40.0811 58.4529H40.3409H40.8591C41.0323 58.4594 41.2058 58.4559 41.3786 58.4427L42.1548 58.3828L42.7196 58.3385L43.0045 58.3158L43.1466 58.305L43.2182 58.299C43.2428 58.2954 43.2673 58.2918 43.2795 58.3194L43.9099 59.2514L44.6566 60.3583L45.9125 62.1943C46.7413 63.3796 47.594 64.6031 48.4584 65.6483Z" fill="#7E76F9"/>
<path d="M54.1555 62.866C54.1738 62.8918 54.1859 62.9215 54.1909 62.9525C54.1959 62.9836 54.1936 63.0155 54.1843 63.0456C54.1402 63.7166 53.7426 64.9612 52.0096 64.3147C51.9349 64.2826 51.866 64.2389 51.8056 64.1854C51.0478 62.8911 50.3427 61.5999 49.618 60.3386C48.9049 59.0976 48.1765 57.8842 47.3845 56.7372C46.6269 55.6088 45.7526 54.5595 44.7754 53.6058L44.4146 53.2652L44.0342 52.9599C43.9068 52.8605 43.7848 52.7498 43.6531 52.6606L43.2543 52.396C42.9926 52.2178 42.7174 52.0593 42.431 51.9219C42.1707 51.7728 41.8184 51.6226 41.5036 51.4831C40.0709 50.92 38.683 50.2537 37.3514 49.4897C36.9739 49.2531 36.6175 48.9857 36.2861 48.6905C35.8872 48.3367 35.5597 47.9129 35.3206 47.4412C35.0388 46.8715 34.9442 46.2307 35.0499 45.6064C35.1531 45.0663 35.3728 44.5539 35.6943 44.1033L35.9081 43.8087L36.1323 43.5477C36.2812 43.3681 36.4386 43.2293 36.5942 43.0688C36.7498 42.9084 36.9109 42.7887 37.0696 42.6498C37.2282 42.5109 37.412 42.3744 37.5933 42.2505C38.3333 41.7225 39.1721 41.3414 40.0621 41.1287C41.0649 40.8793 42.1236 40.9566 43.0773 41.349C43.3211 41.4533 43.5539 41.5804 43.7726 41.7285C43.9891 41.8689 44.1914 42.0293 44.3766 42.2074C44.5532 42.3719 44.718 42.5481 44.8698 42.7348C45.0435 42.9407 45.1954 43.1634 45.3231 43.3993C45.6214 43.9459 45.7474 44.5666 45.6851 45.1832C45.6197 45.7863 45.3836 46.3597 45.0033 46.839C44.6471 47.2938 44.1851 47.659 43.6556 47.9045C43.5172 47.9701 43.3739 48.0252 43.2268 48.0692C43.0574 48.1219 42.8836 48.16 42.7073 48.1829C42.3448 48.233 41.9756 48.2115 41.6218 48.1194C41.2701 48.0238 40.9434 47.8558 40.6637 47.6265C40.3841 47.3973 40.1578 47.1123 40.0002 46.7905C39.86 46.5113 39.7604 46.2143 39.7044 45.9081C39.6486 45.622 39.6431 45.4442 39.6168 45.2335C39.5236 44.3451 39.6068 43.4475 39.8618 42.5899C40.0148 42.1052 40.2492 41.6486 40.5553 41.2388C40.8776 40.8137 41.281 40.4533 41.7431 40.1775C42.5991 39.687 43.5782 39.4395 44.5702 39.4627C45.4601 39.4715 46.3423 39.6253 47.1805 39.9177C47.6021 40.0609 48.0102 40.2395 48.4002 40.4516C48.8295 40.6813 49.226 40.9653 49.5794 41.2963C49.7959 41.5028 49.9841 41.7358 50.1393 41.9895C50.3522 42.3338 50.4727 42.725 50.4897 43.1269C50.502 43.5962 50.3561 44.0564 50.0744 44.4367C49.8636 44.7157 49.6009 44.9533 49.3001 45.1371C49.0715 45.2789 48.8297 45.3992 48.5778 45.4962L48.5564 45.5047C48.8082 45.4394 48.1888 45.604 48.2341 45.5884L48.1367 45.5974C48.0718 45.6022 48.0063 45.6052 47.9407 45.6064C47.8061 45.6075 47.6718 45.5944 47.5401 45.5675C47.2867 45.5182 47.0452 45.4226 46.8282 45.2855C46.5015 45.0751 46.2278 44.7951 46.0276 44.4666C45.8812 44.2243 45.7623 43.9672 45.6729 43.6998C45.3956 42.8047 45.3359 41.8588 45.4983 40.9371C45.6421 39.9602 46.0777 39.0465 46.7504 38.3104C47.1404 37.9017 47.6197 37.5843 48.1527 37.3819C48.6938 37.1767 49.2768 37.099 49.8545 37.155C50.3995 37.2132 50.9275 37.3759 51.408 37.6339C51.8373 37.8628 52.2331 38.1471 52.5848 38.4792C53.2585 39.1064 53.7926 39.8626 54.1537 40.7007C54.2607 40.9498 54.3408 41.2093 54.3926 41.4747C54.4094 41.5574 54.4215 41.6409 54.4287 41.7249C54.4397 41.8259 54.4427 41.9276 54.4379 42.029L54.4263 42.2038C54.4156 42.2793 54.4011 42.3542 54.3828 42.4283C54.3356 42.6171 54.2572 42.797 54.1506 42.9611C53.9981 43.1849 53.7904 43.3675 53.5466 43.4921C53.4849 43.5235 53.4215 43.5517 53.3567 43.5765C53.3395 43.5855 53.0884 43.6567 53.19 43.6273L53.1735 43.631L53.1061 43.6471L52.972 43.68L52.9376 43.6878L52.8396 43.7028C52.7741 43.7118 52.7079 43.7183 52.6412 43.7237C52.5081 43.736 52.3742 43.736 52.2411 43.7237C52.1035 43.7048 51.9674 43.6766 51.8337 43.6393C51.6868 43.5939 51.5465 43.5299 51.4166 43.449C51.2816 43.3747 51.1598 43.2797 51.0558 43.1676C50.8653 42.9765 50.7154 42.7505 50.6147 42.5025C50.5767 42.4026 50.5534 42.3098 50.524 42.2116L50.4879 42.0656L50.4707 41.9416L50.445 41.6932C50.4389 41.6124 50.445 41.5465 50.445 41.4723C50.4448 41.3351 50.4546 41.1981 50.4744 41.0622C50.5392 40.5916 50.6652 40.1309 50.8493 39.6914C51.019 39.2757 51.2314 38.878 51.4833 38.5043C51.7425 38.1091 52.0512 37.7471 52.4022 37.4268C52.7423 37.1168 53.1328 36.8641 53.5576 36.6791C54.0645 36.4671 54.6189 36.3869 55.1669 36.4462C55.6936 36.5197 56.1951 36.7133 56.631 37.0113C56.9827 37.2629 57.2992 37.5584 57.5726 37.8901C57.6951 38.0494 57.8121 38.1775 57.9315 38.3648C58.056 38.545 58.1648 38.735 58.2568 38.9329C58.3518 39.1324 58.4321 39.3382 58.497 39.5489C58.5556 39.7569 58.6 39.9685 58.6299 40.1823C58.7259 40.9658 58.6571 41.7603 58.4277 42.5169C58.0188 43.7918 57.4442 45.0102 56.718 46.1422L55.7476 47.7184C55.434 48.2296 55.135 48.733 54.9035 49.2047C54.8012 49.4087 54.7146 49.6198 54.6443 49.8363C54.6069 50.0134 54.5904 50.1942 54.5953 50.3751C54.6018 50.6159 54.6262 50.856 54.6682 51.0934L54.7099 51.3269L54.7271 51.4089C54.7736 51.6274 54.8294 51.8501 54.89 52.0751C55.0162 52.5253 55.1687 52.9821 55.3341 53.4406C55.3341 53.4406 55.5908 54.3643 56.0202 55.6394C56.4497 56.9144 57.0243 58.5343 57.4219 59.9201C57.705 60.7083 57.8819 61.5291 57.9481 62.3619C57.9524 62.8408 57.8378 62.9839 57.6804 62.8959C57.4124 62.6623 57.1899 62.3832 57.0237 62.0722C56.7407 61.6358 56.3896 61.0629 56.0129 60.4224C56.0558 60.5714 55.1969 59.0276 54.3221 57.3981C53.8878 56.5834 53.4645 55.7417 53.1582 55.0892C52.8519 54.4367 52.6681 53.9812 52.6681 53.9812C52.4996 53.4987 52.3416 53.006 52.2105 52.4888C52.1756 52.3619 52.1456 52.2296 52.1168 52.0973L52.0721 51.8992L52.0524 51.798L51.9789 51.3832C51.845 50.6331 51.8669 49.8644 52.0433 49.1227C52.2552 48.4755 52.5397 47.8531 52.8917 47.267C53.5043 46.199 54.1414 45.2508 54.6909 44.2912C55.2323 43.4263 55.6392 42.4876 55.8983 41.5058C55.9917 41.1317 55.9986 40.7419 55.9185 40.3649C55.8819 40.2083 55.8216 40.058 55.7397 39.9189C55.6345 39.7545 55.5159 39.5988 55.385 39.4531C55.2466 39.2625 55.0437 39.1258 54.8122 39.067C54.7675 39.0527 54.7025 39.0796 54.5996 39.1167C54.4645 39.1819 54.3405 39.2671 54.2321 39.3693C53.8497 39.7393 53.5513 40.1837 53.3561 40.6737C53.2601 40.9005 53.1928 41.1379 53.1557 41.3807C53.1475 41.4227 53.1441 41.4655 53.1453 41.5082C53.1453 41.5238 53.141 41.5483 53.1453 41.5561C53.1484 41.5625 53.1496 41.5695 53.149 41.5765V41.5813C53.1459 41.5813 53.1588 41.5812 53.119 41.5908C53.0729 41.5946 53.0271 41.601 52.9818 41.61C52.8891 41.6299 52.7989 41.6596 52.7128 41.6986C52.6503 41.7135 52.5912 41.7394 52.5382 41.7752L52.4972 41.8057C52.4862 41.8141 52.4849 41.8117 52.4782 41.8165C52.4659 41.8227 52.4545 41.8305 52.4445 41.8399C52.4325 41.8508 52.4218 41.8631 52.4127 41.8764C52.4165 41.8716 52.42 41.8667 52.4231 41.8614C52.425 41.8572 52.4265 41.8528 52.4274 41.8482V41.8441L52.4427 41.8093C52.4618 41.763 52.4705 41.7132 52.4684 41.6633C52.4684 41.6525 52.4684 41.5848 52.4623 41.5435C52.4519 41.4537 52.4227 41.3669 52.3765 41.2885C52.3655 41.2694 52.3532 41.2508 52.3404 41.2328L52.3502 41.1317C52.3857 41.0838 52.4372 41.1 52.4794 41.0808L52.5468 41.0647L52.5634 41.0604C52.3716 40.1535 52.8451 42.2912 52.7949 42.0739C52.7952 42.0779 52.7963 42.0817 52.798 42.0853C52.8206 42.1224 52.7918 42.0751 52.771 42.0727C52.7043 42.0308 52.6301 42.0016 52.5523 41.9865C52.5014 41.9753 52.4495 41.9685 52.3973 41.9662C52.331 41.9544 52.2638 41.9482 52.1964 41.9476C52.0739 41.9536 51.906 41.9476 51.7523 41.9655C51.737 41.9763 51.7462 41.9602 51.74 41.95C51.7207 41.8622 51.6924 41.7766 51.6555 41.6944C51.4366 41.2043 51.1207 40.7612 50.7262 40.3906C50.4249 40.0755 50.0281 39.8632 49.5941 39.7848C49.4363 39.7676 49.2765 39.7881 49.1285 39.8446C48.9729 39.9043 48.8336 39.9986 48.7218 40.12C48.4206 40.4759 48.2293 40.9082 48.1704 41.3663C48.0816 41.8694 48.1079 42.3854 48.2476 42.8773C48.2724 42.9522 48.3041 43.0247 48.3426 43.094C48.3487 43.1029 48.353 43.1048 48.356 43.1119C48.3591 43.1191 48.3591 43.1209 48.356 43.1167C48.353 43.1125 48.3469 43.1215 48.3285 43.1365L48.2807 43.176C48.2494 43.204 48.2195 43.2336 48.1913 43.2646C48.1668 43.2855 48.1435 43.3077 48.1214 43.331C48.0773 43.3789 48.0369 43.4424 48.0154 43.4669C47.9954 43.4986 47.9772 43.5314 47.9609 43.5651C47.9548 43.5789 47.9499 43.5931 47.9462 43.6076C47.9462 43.5956 47.9462 43.6267 47.9462 43.5818C47.9465 43.5688 47.9455 43.5558 47.9432 43.5429L47.9395 43.5256C48.0185 43.6255 47.2289 42.6276 47.5683 43.0467L47.578 43.0425C47.6695 43.0083 47.7575 42.9659 47.8408 42.9156C47.8603 42.9049 47.8786 42.8923 47.8954 42.8779C47.9058 42.8899 47.9646 42.9377 47.9781 42.9539C48.0263 43.0011 48.0792 43.0434 48.1361 43.0802C48.3291 43.2173 48.4081 43.188 48.2997 43.1898C48.2642 43.192 48.2288 43.196 48.1937 43.2017C48.1717 43.2059 48.15 43.2115 48.1288 43.2185C48.0987 43.2251 48.0675 43.2335 48.0369 43.243C48.0075 43.2529 47.9786 43.2643 47.9505 43.2772C47.9131 43.2897 47.8764 43.3047 47.8415 43.3202L47.8151 43.3328L47.809 43.3256C47.7727 43.2718 47.7303 43.222 47.6828 43.1772C47.2742 42.8322 46.7988 42.571 46.2849 42.4091C45.7324 42.2155 45.1509 42.1126 44.5641 42.1045C44.0746 42.0841 43.5889 42.1957 43.16 42.4271C42.8047 42.6459 42.5475 42.9882 42.4402 43.3849C42.2919 43.9164 42.2476 44.4704 42.3097 45.0179C42.3256 45.1652 42.341 45.3472 42.3587 45.4143C42.3753 45.5064 42.401 45.5801 42.3924 45.5567L42.4953 45.5166C42.6336 45.4502 42.7545 45.3537 42.8488 45.2346C42.9247 45.1441 42.9731 45.0346 42.9885 44.9186C42.9988 44.814 42.9741 44.709 42.918 44.6193C42.8717 44.5379 42.8173 44.4611 42.7557 44.39C42.6787 44.2948 42.5952 44.2048 42.5058 44.1206C42.3527 43.9776 42.1769 43.8599 41.985 43.7722C41.7943 43.6915 41.5899 43.6459 41.3822 43.6375C41.2682 43.6314 41.1538 43.6324 41.0398 43.6405C40.9162 43.6558 40.7935 43.6774 40.6722 43.7052C40.1276 43.8401 39.6149 44.0771 39.1628 44.4032C39.0403 44.4852 38.9325 44.5744 38.8155 44.6678C38.6985 44.7612 38.5766 44.8689 38.4712 44.9719C38.3658 45.0748 38.2519 45.176 38.1735 45.279L38.0405 45.4304L37.9358 45.5771C37.8317 45.7162 37.7562 45.8738 37.7134 46.041C37.6965 46.1325 37.7128 46.2269 37.7594 46.308C37.853 46.4798 37.9775 46.6337 38.1269 46.7623C38.3422 46.9506 38.5727 47.1216 38.8161 47.2736C40.0327 47.9594 41.2979 48.5595 42.6019 49.0694C42.956 49.2293 43.2837 49.3634 43.6642 49.5717C44.0388 49.7536 44.3997 49.9612 44.7442 50.1931L45.2594 50.5373C45.4278 50.657 45.5785 50.7881 45.739 50.9132L46.2114 51.2957L46.6475 51.7052C47.7606 52.7861 48.7565 53.9765 49.6192 55.2575C50.4769 56.5002 51.2408 57.7717 51.971 59.0456C52.7202 60.3314 53.4259 61.6208 54.1555 62.866Z" fill="#7E76F9"/>
<path d="M46.6276 67.5331C46.6835 67.4545 46.7662 67.398 46.861 67.3739C47.1033 67.2743 47.3666 67.2332 47.6286 67.2542C47.867 67.2744 48.0904 67.3767 48.259 67.5427C48.4185 67.7306 48.5164 67.9611 48.5401 68.2042C48.5885 68.4772 48.5836 68.7896 48.6694 69.1093C48.6694 69.1285 48.6933 69.2218 48.6896 69.2482C48.5942 69.3519 48.5306 69.4797 48.5058 69.617C48.503 69.6513 48.4964 69.6852 48.4862 69.7181C48.4914 69.7532 48.4939 69.7886 48.4936 69.8241C48.4887 69.8572 48.4932 69.8909 48.5064 69.9216C48.5162 69.9522 48.5126 69.9815 48.5212 70.0168C48.5408 70.0527 48.5536 70.0899 48.5702 70.1282C48.5867 70.1665 48.6112 70.206 48.6314 70.2365C48.6613 70.2846 48.6982 70.3282 48.7411 70.3658C48.8199 70.4329 48.9202 70.471 49.0247 70.4736C49.307 70.4934 49.5906 70.4636 49.8621 70.3856C50.228 70.2901 50.5856 70.1668 50.9317 70.0168C51.6791 69.7043 52.4173 69.2985 53.2547 68.8705L54.4639 68.2718L55.6462 67.6732C56.4328 67.2685 57.2129 66.8543 57.9864 66.4305C58.7035 66.0366 59.4127 65.6337 60.1139 65.2218C60.1139 65.2218 61.0205 64.7777 62.2133 64.1443C63.5089 63.4901 64.7394 62.7196 65.8888 61.8426C66.1928 61.6078 66.4314 61.3021 66.5829 60.9537C66.6014 60.8492 66.5929 60.7418 66.5581 60.6413C66.5234 60.5408 66.4634 60.4505 66.3838 60.3784C66.0898 60.0677 65.9789 59.9132 66.1565 59.8324C66.3036 59.7891 66.4602 59.7877 66.608 59.8282C66.8883 59.8854 67.1421 60.03 67.3309 60.2404C67.5197 60.4507 67.6335 60.7153 67.6549 60.9944C67.6753 61.2338 67.6484 61.4748 67.5759 61.7043C67.2868 62.4519 66.8416 63.1324 66.2686 63.7025C65.6536 64.3226 64.9975 64.9025 64.3047 65.4385C62.8056 66.6172 61.197 67.6642 61.197 67.6642C60.5705 68.0302 59.9403 68.3866 59.3065 68.7334C58.5113 69.1704 57.7111 69.5964 56.9057 70.0114L55.694 70.6274L54.4952 71.2213C53.7392 71.6074 52.9079 72.0677 52.0001 72.4491C51.5229 72.6549 51.0299 72.8237 50.5256 72.9537C49.9279 73.1151 49.3046 73.166 48.6878 73.104C48.3777 73.0679 48.0741 72.9905 47.7854 72.8741C47.4779 72.7465 47.1937 72.571 46.9437 72.3545C46.7056 72.1492 46.4993 71.9113 46.3311 71.6481C46.1783 71.4064 46.0517 71.1498 45.9531 70.8825C45.7634 70.312 45.7244 69.7039 45.8398 69.1147C45.9559 68.5291 46.2276 67.9836 46.6276 67.5331Z" fill="#7E76F9"/>
<path d="M47.9612 72.8864C47.9807 72.7891 48.0298 72.6998 48.1021 72.6302C48.2478 72.4435 48.4439 72.3001 48.6682 72.216C48.8926 72.132 49.1365 72.1106 49.3726 72.1543C49.6144 72.2187 49.829 72.3566 49.9852 72.5482C50.1726 72.7499 50.3166 73.0696 50.5322 73.3354C50.5506 73.3527 50.6131 73.4156 50.615 73.4353L50.6186 73.4323C50.6119 73.4323 50.6358 73.4324 50.6033 73.4282L50.5071 73.4174C50.4416 73.4114 50.3757 73.409 50.3099 73.4102C50.2401 73.4102 50.2211 73.4006 50.1727 73.4012C50.0899 73.4005 50.0074 73.411 49.9276 73.4323C49.8843 73.4342 49.8421 73.4468 49.8051 73.4689C49.7898 73.4778 49.8051 73.4647 49.7965 73.4689C49.788 73.4731 49.8174 73.4521 49.829 73.4383C49.8426 73.4233 49.8546 73.4068 49.8645 73.3893L49.8762 73.3641L49.9105 73.3126C49.9318 73.278 49.9498 73.2415 49.9644 73.2037C49.9809 73.1642 49.9846 73.1354 50.0011 73.084C50.0237 73.0284 50.0429 72.9717 50.0587 72.9139C50.0743 72.8576 50.0863 72.8005 50.0949 72.7427C50.101 72.7038 50.0949 72.7325 50.0949 72.7242H50.1022C50.1124 72.7227 50.1227 72.7227 50.1328 72.7242C50.1616 72.7242 50.2125 72.7242 50.259 72.7242C50.3883 72.7155 50.5169 72.6999 50.6444 72.6775C51.2958 72.5467 51.9343 72.3606 52.5526 72.1213C53.0016 71.9573 53.4525 71.7748 53.9003 71.5826C54.1184 71.4874 54.3506 71.3839 54.5448 71.2911C54.8027 71.1713 55.0624 71.0516 55.3007 70.9534L58.1137 69.7772C58.8642 69.4539 59.6042 69.1186 60.3283 68.7696L60.9445 68.5188C61.3286 68.3602 61.8634 68.1339 62.4644 67.8532C63.7582 67.3127 64.9435 66.5518 65.9648 65.6059C66.2431 65.3062 66.4364 64.9405 66.5253 64.5452C66.5484 64.4705 66.5596 64.3927 66.5584 64.3147L66.5725 64.1004C66.5565 63.9669 66.5492 63.8442 66.5437 63.734C66.4585 63.315 66.4885 63.1186 66.6705 63.1546C66.8626 63.2458 67.0329 63.3757 67.1701 63.5357C67.3073 63.6957 67.4085 63.8822 67.4668 64.083C67.4944 64.1638 67.5232 64.247 67.552 64.332C67.5808 64.4171 67.582 64.5116 67.5955 64.6104C67.6234 64.8138 67.6234 65.02 67.5955 65.2234C67.5669 65.4403 67.5177 65.6541 67.4485 65.8621C67.372 66.0714 67.2794 66.2747 67.1716 66.4704C67.0124 66.8214 66.792 67.1429 66.5204 67.4204C65.9167 68.0946 65.2388 68.7017 64.4988 69.2306C63.7098 69.8101 62.8822 70.3207 62.2543 70.6912C61.6264 71.0618 61.1975 71.2899 61.1975 71.2899C60.5347 71.6043 59.8694 71.9037 59.2017 72.1878C58.2546 72.5985 57.291 72.987 56.3838 73.3719C56.1534 73.4695 55.9482 73.561 55.7467 73.6568C55.482 73.7837 55.2486 73.8873 55.0011 73.9957C54.5111 74.2076 54.021 74.4087 53.5107 74.5943C52.7368 74.8923 51.9373 75.1223 51.1216 75.2815C50.8805 75.3234 50.637 75.3514 50.3926 75.3653C50.0673 75.3847 49.7408 75.3552 49.4247 75.2779L49.2789 75.239C49.2256 75.2222 49.1625 75.1953 49.1055 75.1714C48.9806 75.1226 48.862 75.0597 48.7521 74.984C48.6217 74.8969 48.5025 74.7951 48.3967 74.6805C48.2874 74.5547 48.1929 74.4174 48.115 74.271C48.0519 74.1317 48.0009 73.9876 47.9624 73.84C47.939 73.7181 47.9249 73.5946 47.9202 73.4707C47.9126 73.3656 47.9167 73.26 47.9324 73.1558C47.9318 73.072 47.9446 72.9774 47.9612 72.8864Z" fill="#7E76F9"/>
<path d="M48.0512 74.13C48.0233 74.0614 48.0233 73.985 48.0512 73.9163C48.0825 73.7007 48.162 73.4945 48.2839 73.3122C48.4059 73.1299 48.5673 72.976 48.7569 72.8615C49.1612 72.6448 49.7156 72.7209 50.4471 73.1124C50.5068 73.1456 50.5599 73.189 50.6039 73.2405C50.7485 73.706 51.0175 74.1255 51.3831 74.4557C51.7431 74.7069 52.184 74.8221 52.6242 74.7802C53.7505 74.6749 54.8544 74.4066 55.8998 73.984L57.6806 73.3357L58.6062 73.0058C58.9125 72.9035 59.1925 72.8053 59.4841 72.6999C60.2388 72.427 60.9807 72.13 61.7011 71.8056L62.3137 71.5733C62.6929 71.4248 63.224 71.2105 63.8066 70.9316C64.4313 70.638 65.0303 70.2951 65.5978 69.9061C66.1387 69.5463 66.5976 69.081 66.9455 68.5395C67.1475 68.1823 67.2481 67.7789 67.2371 67.3709C67.2334 67.2122 67.221 67.0537 67.1997 66.8962C67.1703 66.7562 67.1538 66.628 67.1348 66.5179C67.0331 66.0863 67.0687 65.8995 67.2506 65.9342C67.6215 66.1063 67.9187 66.4004 68.0898 66.7651C68.1767 66.9124 68.2471 67.0683 68.3 67.2303C68.3281 67.3193 68.3567 67.4102 68.3857 67.5032C68.4017 67.6014 68.4182 67.7014 68.4347 67.8025C68.4632 68.0191 68.4687 68.238 68.4513 68.4557C68.4276 68.6854 68.382 68.9124 68.3153 69.1339C68.2307 69.5313 68.0605 69.9066 67.816 70.2348C67.572 70.6039 67.2937 70.9504 66.9847 71.2698C66.6378 71.6245 66.2669 71.956 65.8747 72.2623C65.1521 72.8181 64.3884 73.3208 63.5897 73.7661C62.9434 74.1307 62.4999 74.3479 62.4999 74.3479C61.8156 74.6473 61.124 74.919 60.4287 75.1723C60.1224 75.283 59.8014 75.3955 59.5037 75.4955L58.632 75.8074L56.8254 76.4659C56.2067 76.6832 55.5739 76.8987 54.8964 77.0765C54.178 77.2776 53.4377 77.3939 52.691 77.4231C52.1851 77.4387 51.6796 77.3826 51.1902 77.2567C50.6529 77.1161 50.1506 76.8696 49.7144 76.5323C49.3021 76.2072 48.949 75.8164 48.6699 75.3764C48.4188 74.9837 48.2114 74.5659 48.0512 74.13Z" fill="#7E76F9"/>
<path d="M53.8942 76.873C53.8875 76.8281 53.8844 76.8132 53.939 76.7407C54.0403 76.5894 54.1721 76.4598 54.3262 76.3598C54.4804 76.2598 54.6538 76.1914 54.8358 76.1589C55.3672 76.1052 55.904 76.1381 56.4243 76.2564C56.4633 76.2617 56.5012 76.2726 56.537 76.2888C56.5339 76.2965 56.5486 76.3187 56.5633 76.3606C56.578 76.4025 56.5805 76.4725 56.6289 76.5324C56.7311 76.7362 56.8918 76.9066 57.0914 77.0227C57.4834 77.2543 57.9224 77.3996 58.3778 77.4483C58.9908 77.5248 59.6119 77.5141 60.2218 77.4165C61.3899 77.2469 62.5001 76.8082 63.4605 76.1367C63.7494 75.9261 64.0138 75.6853 64.2489 75.4184L64.4327 75.1987C64.4543 75.1734 64.4736 75.1464 64.4903 75.1179L64.6631 74.9442C64.7307 74.8817 64.7922 74.8131 64.8468 74.7395C64.9251 74.6536 64.9966 74.5619 65.0606 74.4653C65.4015 73.9677 65.6387 73.4093 65.759 72.8221C65.7884 72.5653 65.8233 72.3396 65.8558 72.1493C65.867 71.9925 65.8945 71.8372 65.9379 71.6859C66.0145 71.4465 66.1216 71.3399 66.2668 71.3549C66.5394 71.3866 66.9952 71.9032 67.2507 72.7156C67.2623 72.6713 67.3168 72.8952 67.3848 73.2639C67.4161 73.4495 67.4154 73.677 67.4283 73.9224C67.424 74.1865 67.4036 74.4502 67.367 74.712C67.3156 74.9783 67.2543 75.2507 67.1784 75.5021C67.0871 75.7416 67.0087 75.9811 66.9156 76.1708L66.6797 76.624C66.6523 76.6824 66.6193 76.7381 66.5811 76.7904C66.5811 76.7904 66.439 76.97 66.1749 77.2765C66.034 77.4153 65.8686 77.592 65.6628 77.7763C65.4343 77.9763 65.1949 78.164 64.9455 78.3385C63.6361 79.2379 62.1266 79.82 60.5415 80.0367C59.6794 80.1648 58.8029 80.1702 57.9392 80.0529C57.094 79.9448 56.2838 79.6547 55.5672 79.2035C54.9752 78.824 54.499 78.2954 54.1889 77.6734C54.0971 77.4907 54.0226 77.3001 53.9665 77.1041C53.9382 77.0284 53.9141 76.9512 53.8942 76.873Z" fill="#7E76F9"/>
<path d="M61.394 74.2098C61.421 74.1995 61.4499 74.195 61.4789 74.1966C61.5078 74.1981 61.5361 74.2057 61.5618 74.2188C61.961 74.3109 62.3234 74.5165 62.6032 74.8096C62.8905 75.1502 63.051 75.6627 62.5273 76.5067C62.4783 76.5785 62.4159 76.6406 62.3435 76.6899C61.5872 76.9503 60.8163 77.1684 60.0346 77.343C59.3552 77.4931 58.6848 77.6799 58.0265 77.9027C57.8329 77.959 57.6737 78.0494 57.4948 78.1194L57.3637 78.1745L57.2981 78.2026L57.2651 78.2164L57.2571 78.2194C56.9306 77.1047 57.9885 80.7133 56.522 75.7213H56.5318H56.5532L56.8938 75.6908C57.9665 75.5962 58.9956 75.5046 59.9929 75.3472C60.9378 75.2172 61.8624 74.9727 62.7453 74.6192C63.1045 74.4694 63.438 74.2665 63.7341 74.0176C63.788 73.9597 63.8443 73.9039 63.9031 73.85C63.9515 73.7901 63.9822 73.7303 64.0257 73.677L64.0588 73.6351L64.0673 73.6249L64.0716 73.6201C65.2803 77.3202 64.4055 74.645 64.675 75.4711H64.6713L64.6438 75.4621L64.5329 75.4232L64.4226 75.3801L64.2952 75.3532C63.4561 75.2108 62.5944 75.2643 61.7805 75.5094L61.6439 75.5423L61.6249 75.5477L61.5881 75.5591L61.5783 75.5621H61.571C61.5673 75.5621 61.5581 75.5669 61.5649 75.5705C61.5694 75.5729 61.5744 75.5741 61.5796 75.574H61.5839H61.5949L61.6151 75.5692L61.6837 75.5489C62.006 75.4577 62.317 75.3323 62.6112 75.1748C62.7104 75.122 62.8067 75.0643 62.8997 75.0017C62.9455 74.9729 62.9896 74.9417 63.032 74.9084L63.0933 74.8659C63.096 74.8639 63.0983 74.8614 63.1 74.8585C63.1017 74.8556 63.1027 74.8524 63.1031 74.8491C63.126 74.8357 63.1428 74.8143 63.1503 74.7892C63.1522 74.7777 63.1511 74.7659 63.1473 74.7549C63.1434 74.7438 63.1369 74.7338 63.1282 74.7258C63.1146 74.7123 63.0991 74.7006 63.0823 74.6911C62.9754 74.6816 62.8678 74.6832 62.7613 74.6959C61.3848 74.8162 60.0268 75.0898 58.7139 75.5112C57.5873 75.8889 56.8669 76.187 56.4203 76.3271C55.9811 76.478 55.7936 76.4546 55.8114 76.2756C55.9466 75.9212 56.1766 75.6087 56.4773 75.3705C56.9929 74.9087 57.5558 74.4998 58.157 74.1505C58.9564 73.6597 59.8103 73.2595 60.7023 72.9574C61.0889 72.8251 61.4932 72.6886 61.9141 72.5839C62.1193 72.524 62.3349 72.4809 62.5481 72.4384C62.6553 72.4187 62.7429 72.3947 62.9248 72.3702L63.4437 72.3361L63.954 72.3038C64.1099 72.2994 64.266 72.3088 64.4202 72.3319L64.8613 72.3768L65.0738 72.4001L65.2576 72.445L66.5655 72.7725C66.5453 73.24 66.533 73.5172 66.533 73.5172C66.5079 73.7979 66.4883 74.0709 66.4417 74.3481C66.4056 74.4887 66.3805 74.6282 66.3364 74.7671C66.2825 74.9084 66.2341 75.0497 66.1765 75.1909C65.897 75.8001 65.4802 76.3397 64.9574 76.7695C64.9017 76.818 64.8429 76.8767 64.7902 76.9162L64.6591 77.0132C64.5788 77.073 64.4998 77.1329 64.4141 77.1843C64.2505 77.2927 64.0845 77.3933 63.9154 77.4837C63.4473 77.7356 62.9522 77.9363 62.439 78.0823L62.3416 78.111L62.1928 78.1452L61.8963 78.2128C61.7033 78.2637 61.4803 78.2822 61.2733 78.3188C60.8703 78.3714 60.4636 78.3914 60.0573 78.3786C59.3715 78.36 58.6951 78.218 58.0621 77.9596C57.5518 77.7499 57.0926 77.4373 56.7143 77.0425L55.6821 75.8949L55.5737 75.7752L55.5449 75.7435C55.5357 75.7333 55.5731 75.7201 55.5847 75.7087L55.6919 75.6369L56.114 75.3538L56.941 74.8018C57.5566 74.3964 58.205 74.0408 58.8799 73.7387C59.2566 73.583 59.6517 73.419 60.0364 73.2819L60.6172 73.0975L60.9076 73.0053L61.087 72.961C61.6843 72.8033 62.2952 72.7004 62.912 72.6533C63.5873 72.5936 64.268 72.6405 64.928 72.7922L65.1914 72.8557C65.2803 72.8832 65.3697 72.9156 65.4585 72.9491L65.7238 73.049L65.7893 73.0748L65.7979 73.0783H65.8016C66.0736 73.9086 65.2 71.2226 66.4142 74.9395L66.4044 74.9545L66.3835 74.9844L66.3021 75.1041C66.19 75.261 66.0803 75.4256 65.9578 75.5681C65.8353 75.7106 65.6981 75.8339 65.5651 75.9632C65.0554 76.4075 64.4764 76.7694 63.8499 77.0353C62.7514 77.4861 61.5986 77.7979 60.4193 77.9632C59.3007 78.1428 58.1938 78.2367 57.134 78.3313L56.8019 78.3613H56.7817H56.7719C55.3017 73.3615 56.3652 76.9755 56.0368 75.8596L56.0478 75.8548L56.0925 75.8351L56.1814 75.7961L56.3596 75.7189C56.5973 75.6225 56.8369 75.501 57.0746 75.4286C57.83 75.1696 58.5998 74.9526 59.3803 74.7785C60.0619 74.626 60.7342 74.4361 61.394 74.2098Z" fill="#7E76F9"/>
<path d="M1.84079 38.682C1.87387 38.682 1.88428 38.682 1.93207 38.7478C2.05772 38.8827 2.14729 39.0459 2.19281 39.2229C2.23834 39.3998 2.23842 39.5849 2.19303 39.7619C2.15693 39.9917 2.10286 40.2184 2.0313 40.4401C1.99638 40.5551 1.95718 40.6796 1.92288 40.8089C1.90634 40.8747 1.89041 40.9418 1.87754 41.0106C1.8713 41.0454 1.86966 41.0808 1.87265 41.116V41.1339C1.87265 41.1633 1.88857 40.8837 1.88061 41.0034V41.0304L1.87387 41.1381L1.8708 41.2213C1.86844 41.2579 1.86081 41.294 1.84814 41.3285H1.70479C1.66988 41.3285 1.61719 41.3285 1.53449 41.3243L1.45547 41.3177C1.41565 41.3135 1.36664 41.3063 1.32315 41.2979C1.2968 41.2932 1.23922 41.28 1.20063 41.2686L1.13507 41.2489L1.10261 41.2375L1.034 41.2112C0.933329 41.1687 0.837959 41.115 0.749754 41.0513L0.69523 41.0094L0.623563 40.9496C0.576172 40.9051 0.53196 40.8575 0.491241 40.8071C0.317997 40.5924 0.216302 40.3309 0.199871 40.058C0.18344 39.785 0.253067 39.5137 0.399355 39.2806L0.453869 39.1992L0.476537 39.1693L0.523704 39.1094C0.556172 39.0717 0.590482 39.0357 0.626012 39.0016C0.683719 38.9481 0.745125 38.8985 0.809793 38.8532L0.871046 38.8125L0.912091 38.7873L0.984992 38.7448C1.07198 38.6958 1.12834 38.6688 1.19022 38.6383L1.38624 38.5407L1.60433 38.512C4.16054 38.2128 6.74209 38.1807 9.30526 38.4162C9.30526 38.4162 9.63055 38.5036 10.0575 38.6604C10.5384 38.828 11.0048 39.0328 11.4524 39.2728C12.9288 39.9756 12.2574 40.5006 11.2839 40.7269C10.9193 40.8205 10.546 40.8789 10.1696 40.9011L8.99651 41.0382C6.66238 40.8284 4.31211 40.8598 1.98475 41.1321L2.39948 41.0064L2.33821 41.0364L2.09869 40.6437L1.96637 40.4449C1.93145 40.3898 1.89837 40.3401 1.861 40.2893C1.71888 40.0863 1.58043 39.9594 1.56451 39.9786C1.59759 39.9666 1.63618 39.799 1.65578 39.4847L1.66987 39.1926L1.67845 38.7939V38.6814H1.68335L1.84079 38.682Z" fill="#7E76F9"/>
<path d="M80.1156 13.022C80.1426 13.007 80.1524 13.0011 80.2186 13.037C80.612 13.2464 80.9375 13.5592 81.1584 13.9401C81.3792 14.3209 81.4866 14.7546 81.4682 15.192C81.4692 15.2391 81.4615 15.2859 81.4456 15.3303C81.4168 15.3537 80.8164 15.6859 79.9576 16.2145L78.5572 17.2064C78.0671 17.5997 77.5593 18.0343 77.0435 18.4581L75.6149 19.8194L74.421 21.0766L73.2895 22.351L72.4588 23.0293C71.9202 23.4647 71.3591 23.8729 70.7779 24.2523C68.948 25.5441 69.0405 24.5115 69.6482 23.2945C69.8717 22.8229 70.1337 22.3696 70.4317 21.9392C70.6529 21.589 70.8759 21.2358 71.0443 20.97L71.339 20.5288L71.6563 20.1696C71.8621 19.9422 72.139 19.6099 72.5023 19.2244L73.7514 17.9074C74.2415 17.4459 74.7524 16.9496 75.2829 16.4593C75.8422 15.9972 76.3911 15.5219 76.9295 15.0993L78.4702 14.0061C79.4167 13.4171 80.0826 13.0471 80.1156 13.022Z" fill="#7E76F9"/>
<path d="M10.7838 19.598C10.7709 19.595 10.766 19.5944 10.7593 19.528C10.7142 19.2065 10.7021 18.8814 10.7231 18.5576C10.7455 18.0403 10.8906 17.5351 11.147 17.082C11.1687 17.0455 11.1972 17.0132 11.231 16.9868C11.2432 16.9904 11.3835 17.009 11.6046 17.0551C11.816 17.1095 12.1303 17.1748 12.4623 17.285C13.2509 17.5379 14.0201 17.8455 14.7638 18.2056C15.5485 18.5768 16.2953 18.9719 16.8423 19.2658L17.749 19.7537C17.749 19.7537 17.9511 19.9404 18.206 20.2092C18.4971 20.5111 18.7655 20.8333 19.0091 21.173C19.4379 21.6938 19.4992 22.029 19.327 22.2373C19.1869 22.3473 19.0233 22.4253 18.8483 22.4655C18.6733 22.5057 18.4913 22.5071 18.3156 22.4696C17.9872 22.4498 17.663 22.3874 17.3514 22.284L16.3713 22.0213L15.483 21.546C14.9531 21.2628 14.2523 20.8941 13.5527 20.5666C12.9345 20.2687 12.2954 20.0143 11.6402 19.8051C11.3804 19.7165 11.1752 19.6824 11.0239 19.6399C10.8769 19.6112 10.7936 19.601 10.7838 19.598Z" fill="#7E76F9"/>
<path d="M59.5432 2.05951C59.5671 2.04874 59.5757 2.04454 59.6351 2.08644C59.9146 2.27395 60.1372 2.53164 60.2795 2.83235C60.4956 3.3035 60.6599 3.79574 60.7696 4.30079C60.7795 4.33723 60.7859 4.3745 60.7886 4.41211C60.7274 4.43832 60.669 4.47019 60.614 4.50729C60.4496 4.61418 60.2947 4.73431 60.1509 4.86646C59.643 5.35129 59.1931 5.89093 58.8099 6.47498C58.3554 7.14185 57.9364 7.86021 57.635 8.41215C57.3336 8.96408 57.1381 9.3406 57.1381 9.3406C57.1381 9.3406 56.9482 9.55254 56.6701 9.83688C56.3566 10.1628 56.0176 10.4644 55.6563 10.739C54.5193 11.6914 54.2473 10.9288 54.3269 10.0662C54.3484 9.73414 54.41 9.40577 54.5107 9.08798C54.6332 8.57974 54.7778 8.05894 54.7778 8.05894C54.7778 8.05894 54.9769 7.67223 55.2967 7.09096C55.6165 6.50969 56.0643 5.73389 56.588 4.96825C57.085 4.21856 57.6692 3.52771 58.329 2.90955C58.6895 2.57028 59.0985 2.28395 59.5432 2.05951Z" fill="#7E76F9"/>
<path d="M16.1452 64.196C16.133 64.2104 16.1293 64.2157 16.0644 64.196C15.2476 63.9064 14.5569 63.3522 14.1071 62.6258C14.084 62.5916 14.0656 62.5546 14.0526 62.5157C14.0655 62.4989 14.2976 62.1786 14.6425 61.7081C14.7289 61.5884 14.8226 61.4639 14.9207 61.3298L15.2337 60.8677C15.4506 60.5456 15.6815 60.2038 15.9112 59.862C16.3737 59.182 16.8301 58.4929 17.1689 57.9739L17.7368 57.1125C17.7368 57.1125 17.9426 56.9251 18.2434 56.6851C18.5833 56.4081 18.9466 56.1597 19.3295 55.9428C20.5204 55.1783 20.7299 55.9392 20.567 56.7659C20.5154 57.0776 20.4251 57.3819 20.298 57.6722L19.9568 58.6133L19.3969 59.4669C19.063 59.9787 18.6103 60.6641 18.146 61.3495C17.9156 61.6932 17.6847 62.0373 17.4672 62.3606L17.1499 62.8293L16.8301 63.2663L16.1452 64.196Z" fill="#7E76F9"/>
<path d="M83.9357 38.4606C83.9565 38.4606 83.9645 38.4636 83.9865 38.5301C84.1245 38.9335 84.1775 39.3601 84.1423 39.7841C84.107 40.208 83.9842 40.6206 83.7813 40.997C83.7619 41.0351 83.7355 41.0693 83.7035 41.0981L75.45 40.3948C74.6932 40.1699 73.9578 39.8815 73.252 39.5328C71.7205 38.8396 72.4048 38.3092 73.4113 38.0781C73.3139 38.0123 75.7949 37.7788 75.7949 37.7788L83.9357 38.4606Z" fill="#7E76F9"/>
<path d="M29.2704 1.09379C29.2753 1.05428 29.2772 1.03934 29.3482 0.996234C29.4073 0.954865 29.4698 0.918416 29.5351 0.887281C29.6146 0.845917 29.6986 0.813574 29.7856 0.790896C29.9819 0.742161 30.1873 0.739721 30.3848 0.783735C30.8172 0.865148 31.2908 1.16622 31.8605 1.31049C31.8968 1.32206 31.9322 1.33606 31.9665 1.3524C31.9598 1.43208 31.9598 1.51218 31.9665 1.59186C31.9867 1.8825 32.0303 2.17115 32.097 2.45509C32.3331 3.4434 32.6331 4.41611 32.995 5.36738C33.3859 6.43652 33.8177 7.50387 34.1473 8.30423L34.7029 9.63915C34.8945 10.5085 35.0141 11.3916 35.0607 12.2797C35.136 13.2297 34.9449 13.5841 34.6674 13.5805C34.3899 13.5769 34.0156 13.2399 33.6566 12.7879C33.3757 12.4488 33.1253 12.0867 32.908 11.7056C32.535 11.1184 32.157 10.5209 32.157 10.5209L31.602 9.1896C31.2712 8.38565 30.8332 7.30753 30.427 6.19648C30.0287 5.14697 29.7003 4.07339 29.4438 2.98246C29.3486 2.56884 29.2871 2.1485 29.26 1.72537C29.246 1.51492 29.2495 1.30368 29.2704 1.09379Z" fill="#7E76F9"/>
</g>
</svg>
