<svg width="187" height="44" viewBox="0 0 187 44" fill="none" xmlns="http://www.w3.org/2000/svg">
<path d="M169.426 23.3908H148.088C148.321 25.0401 149.202 26.5473 150.556 27.6155C152.008 28.7009 153.825 29.2588 155.677 29.1876C156.863 29.205 158.041 28.9982 159.141 28.5796C160.241 28.1609 161.241 27.5388 162.081 26.7501L167.675 29.2286C166.407 30.9874 164.681 32.4103 162.663 33.3611C160.49 34.302 158.117 34.761 155.726 34.7028C151.573 34.7028 148.191 33.4687 145.582 31.0004C144.292 29.789 143.278 28.3418 142.604 26.7478C141.93 25.1538 141.61 23.4467 141.662 21.7316C141.662 17.9286 142.965 14.769 145.571 12.2529C146.835 11.0191 148.358 10.0468 150.042 9.39791C151.727 8.74901 153.537 8.43776 155.356 8.48398C159.524 8.48398 162.915 9.7403 165.528 12.2529C168.141 14.7656 169.458 18.0805 169.48 22.1976L169.426 23.3908ZM162.782 18.4594C162.355 17.0835 161.44 15.8871 160.189 15.0694C158.877 14.1936 157.302 13.736 155.693 13.7636C153.935 13.7285 152.215 14.2436 150.801 15.2282C149.72 16.1013 148.884 17.2108 148.365 18.4594H162.782Z" fill="white"/>
<path d="M6.67604 8.99094L6.74671 9.08311V34.4775L6.57819 34.6311H0.456795L0.293701 34.4775V14.6341C0.293701 12.34 1.56219 10.6142 4.09918 9.45693C4.91483 9.13588 5.79216 8.97722 6.67604 8.99094ZM3.58272 0.961426C5.09767 0.961426 6.18495 1.79783 6.84456 3.47064V4.18244C6.84456 5.81429 5.75728 6.80774 3.58272 7.16279C1.40816 6.8214 0.320885 5.79722 0.320885 4.09027V4.02882C0.320885 2.58474 1.18708 1.58275 2.91948 1.02287L3.58272 0.961426Z" fill="white"/>
<path d="M20.8874 9.29814C22.4144 9.302 23.9246 9.59814 25.3264 10.1686C26.7282 10.739 27.9923 11.5718 29.042 12.6165C29.9973 11.5423 31.1983 10.6859 32.555 10.1112C33.9117 9.5365 35.3889 9.25854 36.8758 9.29814C41.1343 9.29814 44.4922 11.1758 46.9495 14.9311C47.8737 16.877 48.3303 18.4286 48.3303 19.586V33.9244C48.3448 34.021 48.3353 34.1195 48.3024 34.2121C48.2696 34.3047 48.2143 34.3888 48.1411 34.4579C48.0678 34.5269 47.9785 34.5789 47.8802 34.6099C47.7819 34.6408 47.6773 34.6498 47.5747 34.6362H47.1615C44.4868 34.6362 42.6656 33.117 41.6979 30.0786L41.6001 28.0661V21.1171C41.6001 18.8025 41.0292 17.3157 39.8876 16.6568C39.5233 16.3081 39.0881 16.0322 38.6079 15.8456C38.1278 15.6591 37.6126 15.5658 37.0933 15.5712H36.8921C34.8118 15.5712 33.3096 16.708 32.3854 18.9817V34.0165L31.7276 34.6362H26.052C25.8851 34.5704 25.7435 34.4582 25.6463 34.3145C25.5491 34.1707 25.501 34.0024 25.5083 33.8322V20.605C25.5083 18.2648 24.4808 16.6568 22.415 15.7658L21.0342 15.5814H20.8004C18.5678 15.5814 17.0656 16.79 16.2936 19.207L16.1958 20.3234V34.1497L15.6521 34.6618H9.95477L9.41113 34.1497V22.9145C9.41113 18.1555 10.0925 15.1991 11.4552 14.0452C12.4881 12.2495 14.5938 10.802 17.7723 9.7027L20.8874 9.29814Z" fill="white"/>
<path d="M51.1511 9.29834H61.839C67.7611 9.29834 72.0722 11.8315 74.7722 16.8977C75.5262 18.5316 75.9183 20.2933 75.9247 22.0749C75.9247 25.9804 74.1688 29.2987 70.6569 32.0298C68.1561 33.7061 65.7532 34.5425 63.4482 34.5391H57.3377V38.3848C57.3377 40.638 56.0873 42.345 53.5866 43.5057C52.7797 43.803 51.9195 43.9508 51.0532 43.941L50.9825 43.8795V9.45709L51.1511 9.29834ZM57.3377 15.2846V28.5579H63.0024C64.974 28.5579 66.7608 27.5969 68.3627 25.6749C69.1725 24.5501 69.5975 23.2188 69.5805 21.8598C69.5805 19.3369 68.254 17.362 65.601 15.935C64.7966 15.5398 63.909 15.3177 63.0024 15.2846H57.3377Z" fill="white"/>
<path d="M103.008 9.33936H103.551C107.302 9.33936 110.617 10.7954 113.495 13.7075C115.64 16.2303 116.715 18.8249 116.718 21.4912V22.3924C116.718 25.5537 115.357 28.4555 112.636 31.0979C109.874 33.4535 106.935 34.6313 103.818 34.6313H102.861C99.7875 34.6313 96.8791 33.5149 94.1355 31.2823C91.2868 28.5989 89.8607 25.6015 89.8571 22.29V21.6704C89.8571 18.2565 91.3611 15.2079 94.3693 12.5245C96.7346 10.4977 99.8102 9.36365 103.008 9.33936ZM94.6139 26.6325C94.6121 27.1339 94.7453 27.6275 95.001 28.0672C95.2568 28.507 95.6267 28.8784 96.0763 29.1468C96.5896 29.4679 97.189 29.6455 97.8051 29.6589C98.3372 29.6597 98.8608 29.5338 99.3275 29.293C99.7941 29.0522 100.189 28.7042 100.474 28.2814C100.818 27.7974 101.007 27.2303 101.018 26.6479C101.019 26.1474 100.885 25.6548 100.63 25.216C100.374 24.7773 100.004 24.4066 99.5556 24.1386C99.0415 23.8151 98.4396 23.6373 97.8214 23.6266C97.2898 23.6248 96.7665 23.7502 96.3006 23.9912C95.8346 24.2321 95.4413 24.5807 95.1575 25.0041C94.8173 25.4803 94.6287 26.0382 94.6139 26.612V26.6325Z" fill="white"/>
<path d="M118.638 9.1748C120.366 9.1748 121.55 9.49571 122.188 10.1375L129.103 28.4958H129.201L136.214 9.89173C136.917 9.41378 138.102 9.1748 139.769 9.1748C141.215 9.1748 142.248 9.395 142.862 9.82516V9.89173L133.941 33.5808C133.479 34.011 132.506 34.3438 131.011 34.5692L129.103 34.7586C125.841 34.5299 124.21 33.9512 124.21 33.0227L115.441 9.85076V9.78931C115.903 9.37452 116.969 9.1748 118.638 9.1748Z" fill="white"/>
<path d="M78.5838 9.82049H82.7263C82.8282 9.81981 82.9291 9.83812 83.0234 9.87436C83.1177 9.91061 83.2035 9.96406 83.2757 10.0316C83.348 10.0992 83.4053 10.1796 83.4445 10.2682C83.4836 10.3567 83.5038 10.4517 83.5037 10.5476C83.503 10.696 83.5505 10.8409 83.6397 10.9631C83.729 11.0853 83.8558 11.1789 84.0031 11.2313C84.1504 11.2836 84.3112 11.2923 84.4639 11.2562C84.6166 11.22 84.7539 11.1408 84.8574 11.029C85.1809 10.6923 85.5459 10.3931 85.9447 10.138C86.9345 9.50655 88.1035 9.17102 89.299 9.17525C89.9459 9.17525 91.7888 9.10869 92.887 10.097C93.1914 10.3735 93.4795 10.6552 93.3328 11.029L90.5656 14.5829C90.3047 14.8594 89.9676 15.1615 89.5708 15.0182C89.0704 14.8314 88.5456 14.7091 88.0105 14.6546C86.9885 14.6546 86.1259 15.2503 85.4228 16.4418C84.7197 17.6332 84.3573 19.9717 84.3355 23.4573V24.671V34.0268C84.3362 34.1227 84.3168 34.2178 84.2783 34.3066C84.2398 34.3955 84.1831 34.4762 84.1113 34.5443C84.0396 34.6124 83.9542 34.6664 83.8602 34.7032C83.7662 34.7401 83.6654 34.7591 83.5635 34.7591H78.5838C78.4817 34.7591 78.3806 34.7401 78.2863 34.7033C78.192 34.6665 78.1063 34.6126 78.0341 34.5446C77.9619 34.4766 77.9046 34.3959 77.8656 34.307C77.8265 34.2182 77.8064 34.123 77.8064 34.0268V10.5476C77.8064 10.4517 77.8265 10.3567 77.8657 10.2682C77.9048 10.1796 77.9622 10.0992 78.0344 10.0316C78.1067 9.96406 78.1924 9.91061 78.2867 9.87436C78.381 9.83812 78.482 9.81981 78.5838 9.82049Z" fill="white"/>
<path d="M172.166 9.82049H176.314C176.518 9.82049 176.715 9.8971 176.859 10.0335C177.004 10.1698 177.085 10.3548 177.085 10.5476C177.088 10.6947 177.137 10.8378 177.226 10.9581C177.316 11.0785 177.442 11.1707 177.588 11.2227C177.734 11.2746 177.894 11.2839 178.045 11.2494C178.197 11.2148 178.334 11.138 178.439 11.029C178.764 10.6934 179.129 10.3944 179.526 10.138C180.518 9.50585 181.689 9.17031 182.886 9.17525C183.528 9.17525 185.376 9.10869 186.469 10.097C186.773 10.3735 187.061 10.6552 186.915 11.029L184.158 14.5829C183.897 14.8594 183.566 15.1615 183.163 15.0182C182.665 14.8318 182.142 14.7095 181.609 14.6546C180.587 14.6546 179.722 15.2503 179.015 16.4418C178.309 17.6332 177.955 19.9717 177.955 23.4573V24.671V34.0268C177.955 34.221 177.873 34.4073 177.728 34.5446C177.582 34.6819 177.384 34.7591 177.178 34.7591H172.133C172.031 34.7591 171.93 34.7401 171.836 34.7032C171.742 34.6664 171.657 34.6124 171.585 34.5443C171.513 34.4762 171.457 34.3955 171.418 34.3066C171.38 34.2178 171.36 34.1227 171.361 34.0268V10.5476C171.36 10.4493 171.381 10.3518 171.421 10.2612C171.462 10.1706 171.521 10.0887 171.597 10.0206C171.672 9.95254 171.761 9.89966 171.859 9.86525C171.957 9.83083 172.061 9.8156 172.166 9.82049Z" fill="white"/>
</svg>
