<svg width="25" height="21" viewBox="0 0 25 21" fill="none" xmlns="http://www.w3.org/2000/svg">
<path d="M12.2925 1.97432L12.2097 3.01392C8.91097 4.8911 6.77125 7.19348 5.78677 9.96832C6.64175 9.41822 7.3793 9.14409 8.04686 9.14972C9.14491 9.14208 10.0194 9.54462 10.7141 10.4084C11.4087 11.2721 11.7052 12.342 11.6035 13.6178C11.4906 15.0355 10.9186 16.2263 9.8401 17.1866C8.76159 18.1469 7.52731 18.6668 6.04618 18.6915C4.61247 18.7199 3.41736 18.1492 2.55942 16.9395C1.70149 15.7299 1.29286 14.2707 1.43967 12.4277C1.64294 9.876 2.82685 7.59258 4.94774 5.52647C7.06487 3.50762 9.49731 2.32231 12.2925 1.97432Z" />
<path d="M24.3822 1.74886L24.2993 2.78846C21.0006 4.66564 18.8609 6.96802 17.8727 9.79012C18.7276 9.24002 19.4652 8.96589 20.1328 8.97151C21.2308 8.96388 22.1053 9.36642 22.8 10.2302C23.4946 11.0939 23.7911 12.1638 23.6894 13.4396C23.5765 14.8573 23.0045 16.0481 21.926 17.0084C20.8475 17.9687 19.6132 18.4886 18.1321 18.5132C16.651 18.5379 15.5033 17.971 14.6453 16.7613C13.7874 15.5517 13.4299 14.049 13.573 12.2533C13.7763 9.70157 14.9128 7.41438 17.0336 5.34827C19.1545 3.28216 21.587 2.09685 24.3822 1.74886Z" />
</svg>
