<svg fill="#FCDD48" width="169" height="158" viewBox="0 0 169 158" xmlns="http://www.w3.org/2000/svg">
<g filter="url(#filter0_d)">
<path d="M85.7634 148.961C65.2311 147.907 46.0174 142.144 30.9093 129.852C15.8756 117.482 4.87288 98.6612 4.93868 80.2367C4.85099 61.8152 15.9062 43.7117 30.2105 28.9985C44.4403 14.3636 62.0726 3.1161 81.6672 1.04155C101.257 -1.18645 122.963 5.75553 138.354 19.8073C153.824 33.9343 163.053 55.0928 164.009 76.8748C164.885 98.5816 157.558 120.68 142.971 133.633C128.305 146.511 106.375 150.09 85.7634 148.961Z"/>
</g>
<defs>
<filter id="filter0_d" x="0.938232" y="0.631836" width="167.141" height="156.525" filterUnits="userSpaceOnUse" color-interpolation-filters="sRGB">
<feFlood flood-opacity="0" result="BackgroundImageFix"/>
<feColorMatrix in="SourceAlpha" type="matrix" values="0 0 0 0 0 0 0 0 0 0 0 0 0 0 0 0 0 0 127 0"/>
<feOffset dy="4"/>
<feGaussianBlur stdDeviation="2"/>
<feColorMatrix type="matrix" values="0 0 0 0 0 0 0 0 0 0 0 0 0 0 0 0 0 0 0.25 0"/>
<feBlend mode="normal" in2="BackgroundImageFix" result="effect1_dropShadow"/>
<feBlend mode="normal" in="SourceGraphic" in2="effect1_dropShadow" result="shape"/>
</filter>
<linearGradient id="paint0_linear" x1="131.279" y1="30.455" x2="72.4795" y2="160.772" gradientUnits="userSpaceOnUse">
<stop stop-color="#FCDD48"/>
<stop offset="1" stop-color="#FBCF30"/>
</linearGradient>
</defs>
</svg>
